<svg xmlns="http://www.w3.org/2000/svg" width="76" height="76" viewBox="0 0 76 76" fill="none"><script xmlns=""/> <path d="M75.7267 38.364C75.7267 59 58.9985 75.7267 38.364 75.7267C17.7279 75.7267 1 59 1 38.364C1 17.728 17.7279 0.999998 38.364 0.999998C58.9985 0.999998 75.7267 17.728 75.7267 38.364Z" stroke="#7B7979" stroke-width="0.501333" stroke-miterlimit="10"/> <path d="M52.2865 45.9227L47.3425 46.6187L44.5572 43.5561L47.3425 36.1241L60.0159 43.3907L55.6986 50.6587L52.2865 45.9227ZM43.4799 42.552L43.4359 42.5894C41.5985 44.1841 39.7506 45.7654 37.8719 47.3147C39.5999 45.6294 41.3586 43.9761 43.1252 42.3361C44.0532 38.6761 45.0239 35.0281 46.0359 31.3934C46.4919 29.0134 46.9665 26.6374 47.4812 24.2694C47.1625 26.6761 46.8012 29.0747 46.4239 31.4734L46.4226 31.4787L46.4199 31.4894C45.4866 35.1694 44.5133 38.8361 43.4959 42.4921L43.4799 42.552ZM33.0052 43.5547C32.8119 43.3814 32.6226 43.2001 32.4279 43.0254C32.2452 43.2014 32.0666 43.3801 31.8826 43.5547C32.0546 43.3694 32.2306 43.1881 32.4026 43.0027C31.0625 41.7974 29.7293 40.5854 28.4199 39.3507L23.9239 35.0561L19.5026 30.6801C18.0386 29.2134 16.5959 27.7227 15.1706 26.2161C16.7172 27.5974 18.2479 28.9974 19.7572 30.4187L24.2546 34.7161L28.6746 39.0881C29.9452 40.3641 31.1945 41.6627 32.4359 42.9667C35.4519 39.7201 38.5132 36.5147 41.6119 33.3481C41.7999 28.2227 42.0413 23.0974 42.4679 17.9814C42.4719 23.1427 42.2893 28.2987 42.0519 33.4507L42.0479 33.5374L41.9879 33.5987C38.8545 36.7707 35.6799 39.9027 32.4613 42.9947C32.6413 43.1814 32.8265 43.3654 33.0052 43.5547ZM14.0559 26.1454C14.6546 26.2867 15.2665 26.0667 15.8559 25.9507C16.4492 25.8081 17.0373 25.6347 17.6213 25.4574C18.7946 25.1147 19.9599 24.74 21.1186 24.3507C23.4372 23.5734 25.7519 22.7774 28.0439 21.9241C30.3492 21.1041 32.6346 20.2281 34.9093 19.3307C36.0466 18.8827 37.1786 18.4161 38.2946 17.9187C38.8573 17.6787 39.4119 17.424 39.9573 17.1494C40.4826 16.8547 41.0746 16.6094 41.4478 16.1187C41.1039 16.6347 40.5226 16.9214 40.0133 17.2507C39.4826 17.5614 38.9412 17.8534 38.3932 18.1294C37.2932 18.6734 36.1732 19.1761 35.0492 19.6694C32.7959 20.6401 30.5039 21.5134 28.2065 22.3707C25.8945 23.1881 23.5785 23.9947 21.2279 24.6974C20.0519 25.0467 18.8719 25.3854 17.6825 25.6814C17.0839 25.8214 16.4852 25.9574 15.8784 26.0627C15.2811 26.1427 14.6506 26.3254 14.0559 26.1454ZM59.3186 55.1147L63.2186 49.4041V38.2627L48.5946 30.3254C48.5946 30.3254 50.9639 25.868 50.4066 24.7534C49.8492 23.64 41.9786 10.8267 41.9786 10.8267C41.9786 10.8267 39.6519 13.7534 36.5893 15.4254C33.5253 17.096 8.06787 22.5254 8.06787 22.5254L30.9079 45.1667L37.7332 49.8227L40.5186 49.1254L53.3306 61.184L64.3892 61.4214" fill="#231F20"/> </svg>
