<svg xmlns="http://www.w3.org/2000/svg" width="76" height="76" viewBox="0 0 76 76" fill="none"><script xmlns=""/> <path d="M45.6135 54.476C43.8255 51.7826 42.4122 51.8013 39.4736 54.58C38.5402 50.2253 37.6242 45.944 36.7295 41.7666C37.7495 41.628 38.7215 41.4973 39.8402 41.3453C39.8402 42.4239 39.7669 43.6706 39.8549 44.908C40.0816 48.1373 41.3855 49.4719 44.6095 49.1533C47.7469 48.8426 50.8335 48.052 53.9429 47.4733C54.0962 47.444 54.2522 47.416 54.3175 47.404C53.5015 48.992 52.6802 50.5906 51.8175 52.2653C51.6229 51.8106 51.4068 51.3093 51.1908 50.8093C50.4482 49.092 48.9616 48.8879 47.9002 50.4519C47.0509 51.7079 46.3909 53.0906 45.6135 54.476Z" fill="#231F20"/> <path d="M75.7267 38.364C75.7267 59 58.9985 75.7267 38.364 75.7267C17.7279 75.7267 1 59 1 38.364C1 17.728 17.7279 1.00005 38.364 1.00005C58.9985 1.00005 75.7267 17.728 75.7267 38.364Z" stroke="#7B7979" stroke-width="0.501333" stroke-miterlimit="10"/> <path d="M65.382 30.5488C64.8086 31.2421 64.0486 31.9301 65.382 32.8994V30.5488ZM58.5619 38.5701C58.8566 39.1421 59.7113 39.1074 59.9871 38.5248C60.0339 38.4274 60.0579 38.3381 60.0473 38.2501C60.0339 38.1341 59.9553 38.0261 59.8446 37.9221C59.5045 37.5994 58.9592 37.6274 58.6592 37.9874C58.5686 38.0994 58.5033 38.2114 58.4978 38.3274C58.4938 38.4061 58.5192 38.4861 58.5619 38.5701ZM30.8539 34.9754C30.6191 34.3661 29.7432 34.3034 29.4126 34.8688C29.3619 34.9581 29.3352 35.0394 29.3366 35.1207C29.3392 35.2021 29.37 35.2821 29.4206 35.3608C29.7232 35.8328 30.4285 35.8794 30.7833 35.4448C30.8393 35.3754 30.8793 35.3021 30.8913 35.2261C30.9046 35.1474 30.8886 35.0661 30.8539 34.9754ZM23.1433 49.7781C22.726 51.7101 24.4939 52.6501 26.2806 51.6581C25.2352 51.0301 24.2313 50.4288 23.1433 49.7781ZM16.2164 34.2368C16.3272 34.1194 16.4391 34.0021 16.5512 33.8848C16.5951 32.6595 17.9111 31.4474 16.4871 30.1368C15.5513 31.0088 14.7326 31.9554 14.9646 33.2914C15.0299 33.6674 15.7806 33.9248 16.2164 34.2368ZM22.25 47.4261C22.37 47.3408 22.4899 47.2554 22.6099 47.1701C22.3485 43.9674 22.7058 42.8874 23.966 43.0781C22.1553 45.5034 23.0686 48.0421 26.1579 49.1754C25.9433 45.2594 26.242 44.3528 27.994 44.4354C26.1966 45.5328 26.5726 47.0954 26.7724 48.5821C26.9926 50.2221 28.1633 50.8221 29.674 50.1554C30.198 49.9234 30.7993 49.4781 31.2685 49.5794C32.8006 49.9141 33.6873 48.8128 34.7646 48.3474C34.6633 45.7048 33.4059 43.6181 32.0552 41.5874C31.7432 41.1221 31.1712 40.8301 30.7193 40.4568C30.4926 40.9234 30.2846 41.4021 30.0366 41.8568C29.7646 42.3594 29.4579 42.8434 29.1644 43.3354C28.6592 42.8608 27.802 42.4514 27.702 41.9034C26.5778 35.7728 29.2019 31.5701 35.8246 29.9808C36.0139 29.9354 36.2445 29.9475 36.4259 30.0168C38.6073 30.8368 40.8299 31.4834 42.2873 33.6168C43.6166 35.5661 45.9446 35.5661 47.3633 33.6968C48.6939 31.9474 50.3485 31.3381 52.4606 31.5928C52.7246 31.6261 53.1793 31.3194 53.2886 31.0621C53.3966 30.8061 53.2819 30.2994 53.0753 30.1154C52.8765 29.9394 52.4019 29.9394 52.1085 30.0394C51.6606 30.1901 51.2846 30.6488 50.8446 30.7048C48.9673 30.9434 47.598 31.8488 46.5113 33.3928C45.7766 34.4368 43.8846 34.3661 43.1286 33.3314C41.8526 31.5821 40.3031 30.2727 38.1486 29.7647C37.7139 29.6621 37.3232 29.3728 36.8886 29.2741C36.4272 29.1701 35.898 29.0528 35.466 29.1768C32.1393 30.1341 29.1259 31.5554 27.5059 34.9034C27.4178 35.0834 27.2846 35.2541 27.1353 35.3901C26.1233 36.3154 25.7566 37.4874 25.7112 38.8248C25.6884 39.4434 25.5006 40.0554 25.3739 40.7434C23.8819 40.2434 23.0671 39.3741 23.3031 38.0941C23.5366 36.8434 24.0592 35.6034 24.6832 34.4848C25.1046 33.7274 25.4299 33.1834 24.5619 32.6408C23.7444 32.1314 22.9233 32.1581 22.4606 33.0901C21.9153 34.1874 21.4446 35.3301 21.0711 36.4954C20.8166 37.2888 20.7833 38.1501 20.6513 38.9834C19.3499 38.6848 18.7033 38.1714 18.8725 37.1048C19.1191 35.5461 19.7219 34.0488 20.0845 32.5048C20.1726 32.1341 20.0325 31.4501 19.7873 31.3248C19.4059 31.1301 18.6592 31.0954 18.3952 31.3434C17.9099 31.7968 17.4206 32.4848 17.3712 33.1114C17.2511 34.6061 17.2846 36.1341 17.4673 37.6248C17.5391 38.2008 18.0766 38.8661 18.5873 39.2154C20.3286 40.3994 21.2553 41.9634 21.3113 44.0648C21.3299 44.7221 21.3326 45.4008 21.4966 46.0274C21.626 46.5248 21.99 46.9634 22.25 47.4261ZM47.2366 24.6474C43.9698 25.8848 40.9112 24.8554 37.8646 23.8434C36.6833 23.4514 35.6606 23.2994 34.778 24.4701C34.5926 24.7168 33.8819 24.7621 33.5032 24.6328C31.4391 23.9288 29.3938 23.1661 27.362 22.3688C26.6846 22.1034 26.3713 22.2421 26.2578 23.0541C28.8673 24.0354 31.4698 25.0381 34.0993 25.9674C34.3739 26.0661 34.902 25.8221 35.1393 25.5741C35.9245 24.7528 36.7193 24.7061 37.6913 25.2168C38.5273 25.6554 39.4753 25.8861 40.2926 26.3541C42.282 27.4928 44.3819 27.8154 46.5778 27.2861C48.3219 26.8634 49.9326 27.2181 51.4926 27.9088C52.4659 28.3408 53.3725 28.3275 54.3566 27.9995C55.7006 27.5515 57.0726 27.1834 58.4313 26.7808C58.4326 26.6541 58.4353 26.5274 58.438 26.4021C58.194 26.3407 57.9285 26.1821 57.7126 26.2328C56.794 26.4488 55.87 26.6808 54.9793 26.9914C53.6645 27.4528 52.4326 27.6061 51.0792 26.9581C50.1966 26.5354 49.3366 26.3861 49.4206 25.0954C49.4393 24.8088 48.7539 24.3608 48.3138 24.1821C41.7618 21.5048 35.1966 18.8608 28.6353 16.2074C28.4646 16.1381 28.3072 16.0354 27.9166 15.8274C31.5152 15.1767 34.8526 14.5581 38.1966 13.9874C38.5713 13.9234 39.0073 14.0834 39.3873 14.2168C46.1433 16.5808 52.8886 18.9781 59.6578 21.3061C60.5951 21.6301 61.2566 21.9888 61.4219 23.0381C61.4646 23.3008 61.8193 23.5154 62.0299 23.7501C62.1273 23.4101 62.3378 23.0554 62.2979 22.7314C62.1566 21.5488 61.5564 20.8621 60.3192 20.4474C53.8459 18.2741 47.4099 15.9834 40.9631 13.7328C40.5126 13.5754 40.0671 13.3994 39.3846 13.1448C42.4832 12.6008 45.2019 12.4381 48.0379 13.4954C52.5419 15.1754 57.1833 16.4915 61.7751 17.9301C63.0166 18.3195 63.41 19.3848 63.994 20.3474C64.2965 20.8461 64.7578 21.2594 65.1939 21.6607C65.4698 21.9127 65.8311 22.0754 66.3031 22.3701C65.7751 22.7328 65.4232 22.9728 65.0726 23.2154C65.0939 23.2821 65.1153 23.3501 65.1353 23.4168C65.6166 23.2514 66.0966 23.0861 66.9793 22.7834C66.4912 24.3048 66.3499 25.7728 65.5993 26.7914C64.8673 27.7834 63.5151 28.3168 62.5218 29.2634C63.2445 28.9701 63.9698 28.6821 64.6924 28.3861C65.2058 28.1754 65.5752 28.2181 65.6526 28.8754C65.7432 29.6394 65.8006 30.4128 65.9631 31.1621C66.2672 32.5794 65.4606 33.6421 64.5911 34.4088C62.9911 35.8154 62.8953 35.7061 62.2926 37.0568C61.3686 36.2981 60.4458 35.5354 59.8166 35.0194C59.2512 34.0754 58.9206 33.3341 58.4005 32.7688C58.2511 32.6074 57.2433 32.8501 57.1606 33.0901C56.91 33.8154 56.9193 34.6328 56.8273 35.4114C56.9486 35.4581 57.0699 35.5021 57.1885 35.5461C56.0218 36.2887 54.8539 37.0301 53.6578 37.7901C53.8059 37.9768 53.906 38.1608 53.9486 38.1474C55.4233 37.7248 56.8765 37.2021 58.3725 36.8808C58.9871 36.7474 59.8006 36.8581 60.3326 37.1794C61.1806 37.6874 62.2578 38.3421 62.5151 39.1607C62.7858 40.0287 62.2006 41.1914 61.1433 41.6741C59.2685 42.5248 59.6578 44.1661 59.7313 45.4034C55.1553 46.4208 50.7072 47.4101 46.0604 48.4448C49.3699 44.9888 49.9046 42.0141 47.7206 39.9541C45.8591 38.1967 43.4071 38.7181 40.7164 41.5141C40.7164 40.5074 40.7045 39.5861 40.7191 38.6674C40.7391 37.3114 40.2057 36.2461 39.0071 35.6048C38.0765 35.1074 37.1525 35.2981 36.3578 35.9501C35.2991 36.8194 34.9685 37.9981 35.2485 39.2914C36.359 44.4381 37.5125 49.5754 38.6498 54.7154C38.8538 55.6381 39.0632 56.5594 39.2698 57.4821C39.5552 58.7474 40.2391 59.7021 41.5538 59.9634C42.8511 60.2194 43.9697 59.6861 44.6445 58.6061C45.2684 57.6101 45.6364 56.4581 46.1352 55.3821C46.5324 54.5248 46.9578 53.6808 47.3764 52.8168C48.9752 54.2528 49.3858 54.2434 51.0658 52.6914C51.8978 54.5181 52.7164 56.3154 53.619 58.2981C53.0378 58.4421 52.355 58.6821 51.6552 58.7608C50.8392 58.8541 50.0072 58.8354 49.1832 58.8088C48.1898 58.7794 47.6138 59.1261 47.3351 60.1661C46.8058 62.1448 46.435 62.2408 44.7471 61.0274C43.8711 60.3981 42.9885 60.0514 41.8632 60.3634C41.4098 60.4888 40.7871 60.3621 40.3511 60.1381C38.6311 59.2541 36.963 58.2674 35.2551 57.3541C34.5216 56.9621 33.8672 56.5408 32.8657 56.6248C32.2672 56.6741 31.5496 55.7288 30.9498 55.1634C30.5818 54.8168 30.4098 54.2488 30.0217 53.9434C28.6232 52.8394 27.1431 52.3034 25.2365 52.7368C23.411 53.1501 22.3111 52.0648 22.3098 50.1848C22.3085 49.3954 22.0365 48.9314 21.3618 48.6701C20.5898 48.3714 20.3645 47.8154 20.3432 47.0274C20.3045 45.6754 20.2325 44.3168 20.0591 42.9754C19.8925 41.6741 19.119 40.7594 17.9965 40.0554C17.5271 39.7594 17.0844 39.1888 16.939 38.6594C16.6057 37.4394 16.4618 36.1687 16.2312 34.8621C13.5365 33.9487 13.5098 32.4634 16.3417 29.3301C14.8724 27.5461 14.9498 25.4314 15.3871 23.2954C15.4644 22.9154 15.8084 22.3928 16.1338 22.2994C17.2911 21.9608 17.9018 21.2154 17.9605 20.0874C18.0018 19.2968 18.3885 18.9474 19.0338 18.6501C20.9032 17.7888 22.7418 16.8581 24.6178 16.0154C24.9791 15.8514 25.5165 15.8088 25.8751 15.9528C32.9098 18.7541 39.9298 21.5914 46.9524 24.4261C47.0578 24.4688 47.1405 24.5728 47.2366 24.6474Z" fill="#231F20"/> <path d="M55.7461 56.515C56.3621 56.515 57.0367 56.679 57.5847 56.4857C59.5154 55.803 61.1941 53.011 60.7808 51.0017C60.5874 50.055 60.2901 49.079 59.4381 48.335C59.1901 48.119 58.6741 48.051 58.2768 47.9204C60.7821 51.1657 59.4981 54.995 55.7461 56.515ZM61.4781 51.7497C61.5421 53.3164 60.9314 54.8244 59.7714 56.0697C58.8074 57.1044 57.6208 57.7884 56.1301 57.307C54.6128 56.8177 53.8101 55.5737 53.8034 54.1297C53.7954 52.7017 54.0688 51.1764 54.6208 49.863C55.4154 47.9684 57.4834 46.995 59.0168 47.427C60.5008 47.8417 61.4674 49.4724 61.4781 51.7497Z" fill="#231F20"/> <path d="M43.5027 46.7507C44.3307 47.132 44.9214 46.9947 45.7507 46.2227C46.8867 45.1654 47.348 43.484 46.8467 42.1667C46.5787 41.4627 46.2173 40.8574 45.2493 40.8827C46.78 43.6867 46.3027 45.2134 43.5027 46.7507ZM41.356 44.2534C41.344 42.056 42.9027 40.2147 44.808 40.1707C46.4733 40.1347 47.712 41.556 47.6973 43.484C47.68 45.588 46.0707 47.4894 44.2854 47.5147C42.5721 47.5387 41.364 46.1947 41.356 44.2534Z" fill="#231F20"/> <path d="M41.4181 58.4838C42.8794 58.5104 43.9274 57.4705 44.0514 56.0305C44.142 54.9771 43.6474 54.2904 42.7194 54.1851C43.8648 55.9678 43.5767 57.0104 41.4181 58.4838ZM40.3634 56.6904C40.3741 55.1504 41.5754 53.6265 42.8114 53.5851C43.7647 53.5545 44.5607 54.5198 44.5741 55.7264C44.5901 57.2958 43.3141 58.8598 42.0367 58.8318C40.9834 58.8064 40.3541 58.0024 40.3634 56.6904Z" fill="#231F20"/> <path d="M37.8596 40.2441C38.873 40.0161 39.2568 39.2975 39.1756 38.3935C39.1343 37.9428 38.7461 37.5241 38.5155 37.0908C38.3875 37.1348 38.2609 37.1815 38.1329 37.2255C39.1902 38.3641 38.761 39.3201 37.8596 40.2441ZM36.2822 38.5135C36.2836 37.3402 37.0876 36.2615 37.9503 36.2722C38.8116 36.2842 39.6129 37.3668 39.6196 38.5255C39.6249 39.6655 38.8261 40.8148 38.0049 40.8455C37.1156 40.8815 36.2796 39.7495 36.2822 38.5135Z" fill="#231F20"/> <path d="M48.3768 51.3822C48.6168 50.5342 49.9034 50.7768 49.7927 51.6502C49.7861 51.7195 49.7739 51.7875 49.7581 51.8542C49.7419 51.9168 49.7234 51.9782 49.6981 52.0382C49.3728 52.8395 48.1474 52.4835 48.3168 51.6368L48.3208 51.6168C48.3382 51.5355 48.3555 51.4582 48.3768 51.3822Z" fill="#231F20"/> </svg>
