<svg xmlns="http://www.w3.org/2000/svg" width="76" height="76" viewBox="0 0 76 76" fill="none"><script xmlns=""/> <path d="M75.7267 38.364C75.7267 59 58.9985 75.7267 38.364 75.7267C17.7279 75.7267 1 59 1 38.364C1 17.728 17.7279 0.999998 38.364 0.999998C58.9985 0.999998 75.7267 17.728 75.7267 38.364Z" stroke="#7B7979" stroke-width="0.501333" stroke-miterlimit="10"/> <g clip-path="url(#clip0_515_705)"> <path d="M53.4717 31.8659C53.4717 31.8659 56.2613 32.0512 56.4466 35.0267C56.4466 35.0267 58.8632 29.9122 63.699 33.4459H65.0002C65.0001 33.446 61.6536 24.5208 53.4717 31.8659Z" fill="black"/> <path d="M56.4462 39.1643C56.2608 42.1397 53.4712 42.3253 53.4712 42.3253C61.6531 49.6704 64.9997 40.7449 64.9997 40.7449H63.6985C58.8627 44.2789 56.4462 39.1643 56.4462 39.1643Z" fill="black"/> <path d="M45.8463 36.5154C45.8463 36.5154 46.0313 32.1274 49.7517 31.9963L38.7789 21.4512C38.7789 21.4512 37.5716 27.4016 33.9453 27.7742L45.8463 36.5154Z" fill="black"/> <path d="M27.8547 40.5132L31.8993 28.9651C25.2047 30.7137 23.8098 24.9846 23.8098 24.9846L18.8823 36.5153C24.4613 34.9352 27.8547 40.5132 27.8547 40.5132Z" fill="black"/> <path d="M55.7021 36.5154C55.7021 34.3076 53.9115 32.5172 51.7042 32.5172C49.4965 32.5172 47.7061 34.3076 47.7061 36.5154C47.7061 38.7226 49.4965 40.5132 51.7042 40.5132C53.9117 40.5132 55.7021 38.7228 55.7021 36.5154ZM49.9367 36.5154C49.9367 35.5401 50.7282 34.7488 51.7043 34.7488C52.6806 34.7488 53.4714 35.5401 53.4714 36.5154C53.4714 37.4906 52.6806 38.2814 51.7043 38.2814C50.7282 38.2814 49.9367 37.4906 49.9367 36.5154Z" fill="black"/> <path d="M25.5835 21.4511C25.5835 24.3866 27.9632 26.7674 30.8988 26.7674C33.8353 26.7674 36.2161 24.3866 36.2161 21.4511C36.2161 18.5154 33.8354 16.135 30.8988 16.135C27.9632 16.135 25.5835 18.5155 25.5835 21.4511ZM30.8988 19.1019C32.1964 19.1019 33.2479 20.1544 33.2479 21.4512C33.2479 22.7476 32.1964 23.8002 30.8988 23.8002C29.6019 23.8002 28.5494 22.7476 28.5494 21.4512C28.5494 20.1544 29.6019 19.1019 30.8988 19.1019Z" fill="black"/> <path d="M16.0059 44.4806C16.0059 47.416 18.3867 49.7968 21.323 49.7968C24.2585 49.7968 26.6383 47.416 26.6383 44.4806C26.6383 41.5448 24.2585 39.1643 21.323 39.1643C18.3867 39.1643 16.0059 41.5448 16.0059 44.4806ZM21.323 42.1312C22.6198 42.1312 23.6722 43.1839 23.6722 44.4808C23.6722 45.777 22.6198 46.8296 21.323 46.8296C20.0242 46.8296 18.9738 45.777 18.9738 44.4808C18.9739 43.1838 20.0242 42.1312 21.323 42.1312Z" fill="black"/> <path d="M12 60.3182H29.5734L26.6382 49.7968C26.6382 49.7968 22.1499 55.0823 16.0057 49.7968L12 60.3182Z" fill="black"/> </g> <defs> <clipPath id="clip0_515_705"> <rect width="53" height="53" fill="white" transform="translate(12 11.7267)"/> </clipPath> </defs> </svg>
