<svg xmlns="http://www.w3.org/2000/svg" width="76" height="76" viewBox="0 0 76 76" fill="none"><script xmlns=""/> <path d="M75.7267 38.364C75.7267 59 58.9985 75.7267 38.364 75.7267C17.7279 75.7267 1 59 1 38.364C1 17.728 17.7279 0.999998 38.364 0.999998C58.9985 0.999998 75.7267 17.728 75.7267 38.364Z" stroke="#7B7979" stroke-width="0.501333" stroke-miterlimit="10"/> <path d="M55.34 41.0997C55.0067 38.273 52.18 38.3637 52.18 38.3637H47.6907V21.8103L56.504 21.6437L59.272 44.3917C59.272 44.3917 56.6694 42.429 55.34 41.0997ZM42.8426 41.265L40.1227 41.4317L38.364 44.757L37.3547 44.9237L36.6067 48.7477H32.3666L32.8653 38.3637L29.2066 35.3557L30.0374 21.8103H44.0067L44.8373 39.1037L42.8426 41.265ZM25.548 36.6103C25.548 36.6103 21.2253 36.7757 20.7267 41.265C20.228 45.7543 20.7267 52.2397 20.7267 52.2397L17.7333 54.4023C17.7333 54.4023 16.048 27.1743 19.396 21.8103H25.548V36.6103ZM60.1494 49.081L56.8106 21.6437C56.8106 21.6437 66.1227 18.485 53.6507 16.3223C41.18 14.161 30.8693 15.325 23.5533 16.3223C16.2373 17.321 16.736 20.1477 16.736 20.1477H18.3987C14.5747 22.6424 15.7387 50.7437 15.904 53.2383C16.0707 55.733 18.0667 60.2223 18.5654 59.793C23.22 55.537 24.5507 57.0637 26.0467 57.0637C27.544 57.0637 38.9227 61.5517 38.9227 61.5517C38.9227 61.5517 48.9947 61.7183 50.824 61.5517C52.652 61.3863 57.9747 56.3983 60.1494 53.5717C62.3267 50.7437 60.1494 49.081 60.1494 49.081Z" fill="#231F20"/> </svg>
