<svg xmlns="http://www.w3.org/2000/svg" width="76" height="76" viewBox="0 0 76 76" fill="none"><script xmlns=""/> <path d="M75.7267 38.364C75.7267 59 58.9985 75.7267 38.364 75.7267C17.7279 75.7267 1 59 1 38.364C1 17.728 17.7279 1.00002 38.364 1.00002C58.9985 1.00002 75.7267 17.728 75.7267 38.364Z" stroke="#7B7979" stroke-width="0.501333" stroke-miterlimit="10"/> <path d="M55.2063 50.765C55.193 50.7597 55.1809 50.753 55.1689 50.7477C55.1663 50.769 55.1623 50.7904 55.1596 50.8104C55.1729 50.8077 55.1903 50.8104 55.1983 50.8024C55.2063 50.7957 55.2036 50.7784 55.2063 50.765ZM26.7823 49.8997L26.7503 49.8637C26.7357 49.889 26.7197 49.913 26.709 49.9424C26.709 49.9424 26.7316 49.9623 26.741 49.973C26.7556 49.949 26.769 49.9237 26.7823 49.8997ZM29.7903 37.5703C29.7836 37.6223 29.7756 37.6637 29.7743 37.7037C29.7729 37.713 29.797 37.7237 29.8103 37.733C29.8303 37.697 29.853 37.6637 29.8663 37.6264C29.869 37.6197 29.8276 37.5983 29.7903 37.5703ZM32.8836 48.0077L32.9089 48.0277V47.9877L32.8836 48.0077ZM21.3197 63.4183C21.313 63.4063 21.3076 63.397 21.3009 63.385C21.2929 63.3957 21.2797 63.4037 21.2783 63.4117C21.277 63.4224 21.2889 63.4344 21.2943 63.445C21.3023 63.4357 21.3103 63.4263 21.3197 63.4183ZM35.1169 52.0517C35.1076 52.041 35.0996 52.029 35.0902 52.0183C35.0676 52.037 35.0463 52.0544 35.0263 52.0744C35.0263 52.0744 35.0423 52.0944 35.0503 52.1064C35.073 52.0877 35.0943 52.0704 35.1169 52.0517ZM26.6956 52.6103C26.6236 52.5677 26.5623 52.5277 26.4983 52.4944C26.489 52.489 26.4596 52.5024 26.4569 52.5117C26.4529 52.5357 26.4449 52.577 26.4569 52.5877C26.5169 52.6383 26.581 52.7037 26.6956 52.6103ZM21.317 53.0757C21.3076 53.0744 21.2996 53.0743 21.2903 53.073C21.2876 53.1117 21.2823 53.1504 21.2809 53.1877C21.2809 53.1944 21.297 53.1997 21.3063 53.2077C21.3103 53.1637 21.313 53.1197 21.317 53.0757ZM23.1357 44.849C23.1037 44.849 23.0702 44.849 23.0382 44.849C23.0676 45.0117 23.0956 45.173 23.1236 45.3343C23.1369 45.333 23.1503 45.3317 23.1637 45.3304C23.1543 45.169 23.145 45.0103 23.1357 44.849ZM24.1343 62.7584C24.0329 62.925 24.0729 63.0277 24.1903 63.0903C24.3369 63.1703 24.493 63.189 24.6756 63.113C24.3143 63.005 24.3143 63.005 24.1343 62.7584ZM31.1663 57.7957C31.2063 57.9904 31.2343 58.1304 31.2623 58.2677C31.4356 58.2837 31.5183 58.193 31.5143 58.0703C31.5103 57.909 31.4156 57.7984 31.1663 57.7957ZM25.0396 64.3983C25.1676 64.185 25.1516 64.041 25.1063 63.8997C25.0996 63.8757 25.0583 63.8503 25.029 63.849C25.0036 63.8463 24.9516 63.865 24.949 63.8824C24.929 63.9917 24.909 64.1037 24.9143 64.2157C24.917 64.2624 24.9756 64.309 25.0396 64.3983ZM30.0756 58.6317C30.1316 58.721 30.1516 58.801 30.1943 58.817C30.4009 58.8904 30.809 58.861 31.0956 58.757C30.7716 58.533 30.4503 58.593 30.0756 58.6317ZM27.3809 58.1517C27.3769 58.0877 27.3889 57.9997 27.3609 57.9224C27.3449 57.873 27.273 57.8143 27.2236 57.8117C27.173 57.809 27.0796 57.8663 27.0743 57.9063C27.0596 58.037 27.0623 58.1744 27.0837 58.3024C27.0903 58.3424 27.185 58.3957 27.2343 58.3904C27.285 58.385 27.3316 58.3184 27.3676 58.2704C27.3863 58.2477 27.3769 58.205 27.3809 58.1517ZM31.4863 58.5597C31.7503 58.6264 31.965 58.609 32.1783 58.573C32.241 58.5637 32.3076 58.5304 32.3556 58.489C32.3876 58.4624 32.3969 58.4024 32.3983 58.3557C32.3996 58.3317 32.3663 58.2864 32.3436 58.2824C32.1796 58.2557 32.0129 58.2157 31.8503 58.2237C31.6876 58.2317 31.601 58.3744 31.4863 58.5597ZM32.3757 57.6877C31.9223 57.561 31.8583 57.5597 31.5143 57.665C31.6237 57.9103 31.7956 58.0344 32.0703 57.9917C32.2303 57.9677 32.3717 57.9264 32.3757 57.6877ZM35.365 60.5224C35.5595 60.5357 35.7316 60.377 35.7383 60.181C35.7449 59.9824 35.5916 59.8117 35.3983 59.8024C35.2063 59.793 35.045 59.9464 35.0263 60.1517C35.009 60.3477 35.1557 60.5104 35.365 60.5224ZM26.4823 58.401C26.6049 58.205 26.561 58.0144 26.5263 57.825C26.3343 57.7424 26.1783 57.765 25.9956 57.8744C25.9956 57.997 25.989 58.129 25.9983 58.2624C26.0023 58.3064 26.0423 58.3477 26.0703 58.401H26.4823ZM32.6556 58.7677C33.0383 58.621 33.1503 58.353 33.157 58.033C33.1623 57.7463 33.005 57.569 32.6463 57.4224C32.6383 57.809 32.6289 58.189 32.6236 58.5703C32.6236 58.6183 32.6383 58.6664 32.6556 58.7677ZM28.4636 59.6317C28.4463 59.481 28.421 59.3504 28.4143 59.2184C28.3996 58.913 28.4476 58.8624 28.745 58.8397C28.8303 58.833 28.9143 58.833 28.9983 58.8197C29.0223 58.8157 29.061 58.769 29.057 58.749C29.0476 58.7063 29.0156 58.633 28.9929 58.633C28.5556 58.6317 28.117 58.6397 27.6783 58.6464C27.665 58.6464 27.6516 58.6664 27.6383 58.6757C27.4849 59.2104 27.4849 59.2103 27.8289 59.6797C28.0423 59.7223 28.2556 59.709 28.4636 59.6317ZM30.8676 51.3117C30.9876 51.3197 31.0703 51.3303 31.153 51.3317C31.769 51.3383 31.9063 51.1797 31.821 50.5677C31.8156 50.533 31.8129 50.4997 31.8009 50.4664C31.7529 50.329 31.6649 50.225 31.5103 50.2197C31.2916 50.213 31.069 50.1744 30.8543 50.2464C30.8797 50.4264 30.9183 50.5904 30.921 50.753C30.9236 50.9197 30.8916 51.0863 30.8676 51.3117ZM57.8569 45.533C57.6863 45.6357 57.7756 45.7383 57.8236 45.809C57.9903 46.0583 58.0676 46.3317 58.0889 46.625C58.1116 46.897 58.0409 47.1197 57.8009 47.2877C57.6356 47.4037 57.4836 47.5437 57.3516 47.697C57.1516 47.929 56.973 48.1797 56.789 48.4237C56.745 48.4837 56.6636 48.549 56.7489 48.6384C57.3289 48.2544 58.4556 47.341 58.6836 47.0677C58.6023 46.4477 58.1983 46.0103 57.8569 45.533ZM20.6396 49.8637C20.6623 49.8583 20.6769 49.817 20.7489 49.7104ZM26.5116 55.625C26.625 55.1063 26.6036 53.609 26.4716 52.977C26.2916 52.9344 26.1129 52.949 25.9409 53.017C25.8476 53.4157 25.8463 55.153 25.9436 55.6384C26.1276 55.6637 26.321 55.7023 26.5116 55.625ZM30.9129 60.537C31.1116 60.5864 31.2717 60.637 31.4343 60.6637C31.841 60.7304 32.2516 60.7263 32.6516 60.6397C32.9609 60.573 33.1116 60.2263 33.009 59.9037C32.8983 59.5557 32.6356 59.425 32.2916 59.5757C32.0143 59.697 31.7409 59.729 31.4569 59.6317C31.2663 59.569 31.0943 59.6063 30.9129 59.6823V60.537ZM30.6783 57.7357C30.5676 57.7104 30.5036 57.6824 30.4383 57.681C29.6036 57.6797 28.7676 57.677 27.9316 57.6823C27.8396 57.6837 27.7449 57.737 27.6556 57.7637C27.6423 57.9904 27.5996 58.193 27.741 58.4117C27.8983 58.4224 28.065 58.4384 28.233 58.445C28.4703 58.453 28.7116 58.4397 28.9476 58.4624C29.4263 58.509 29.901 58.4864 30.377 58.4344C30.4716 58.4237 30.565 58.3783 30.6783 58.3437V57.7357ZM58.693 44.0144L58.7677 43.9744C58.7157 43.833 58.6663 43.689 58.6103 43.549C57.5716 40.889 56.5329 38.2277 55.4929 35.5677C55.3489 35.1997 55.2063 34.8343 55.0543 34.4703C55.0156 34.3837 54.945 34.309 54.8823 34.221C54.641 34.3077 54.3969 34.325 54.2143 34.5623C54.2849 34.7477 54.3516 34.9397 54.4263 35.1277C54.8129 36.1157 55.1996 37.1024 55.5889 38.089C56.1903 39.617 56.7983 41.141 57.3943 42.6717C57.4703 42.869 57.5676 43.037 57.7289 43.1757C58.0529 43.453 58.373 43.7344 58.693 44.0144ZM49.3583 26.113C49.3956 26.213 49.4156 26.2783 49.4423 26.341C49.9983 27.6263 50.5529 28.913 51.1103 30.1984C52.2743 32.8797 53.4396 35.5597 54.6036 38.2384C55.1609 39.5237 55.717 40.8104 56.2783 42.0944C56.441 42.4664 56.7556 42.693 57.2343 42.7837C56.9276 41.825 56.5196 40.9277 56.1756 40.0077C55.8329 39.0957 55.4676 38.1944 55.1036 37.293C54.7343 36.3784 54.4156 35.4424 54.0089 34.561C53.6823 34.5624 53.6756 34.565 53.605 34.393C53.425 33.949 53.2503 33.5037 53.0756 33.0584C51.9209 30.1157 50.7676 27.173 49.6103 24.2317C49.5729 24.1357 49.5089 24.0517 49.4569 23.961C49.4916 24.3837 49.5596 24.7863 49.6409 25.185C49.6849 25.401 49.6449 25.5943 49.5556 25.7837C49.5049 25.889 49.4356 25.9864 49.3583 26.113ZM30.5183 56.9997C30.733 56.693 30.8076 56.341 31.2343 56.3557C31.301 56.3584 31.3716 56.2677 31.4383 56.2157C31.6343 56.065 31.8583 56.0944 32.077 56.1264C32.2557 56.1504 32.3036 56.3117 32.3703 56.4517C32.3903 56.4917 32.4436 56.5157 32.4743 56.5437C32.6903 56.5264 32.8449 56.437 32.9303 56.2464C33.0196 56.0477 33.0036 55.853 32.8928 55.6517C32.765 55.645 32.6476 55.6344 32.5303 55.6357C32.2569 55.6384 31.9836 55.6504 31.7103 55.6504C31.4196 55.649 31.3423 55.5797 31.3356 55.2917C31.3156 54.337 31.3036 53.3824 31.289 52.3824C31.0756 52.2304 30.7796 52.2157 30.5063 52.1357C30.3863 52.101 30.2823 52.1143 30.1637 52.1623C29.837 52.2957 29.4716 52.3077 29.1623 52.189C28.8943 52.085 28.6383 52.0677 28.3676 52.0584C28.1969 52.053 28.025 52.0584 27.8556 52.045C27.681 52.0317 27.6143 51.9623 27.5876 51.7917C27.5676 51.6637 27.5556 51.533 27.5356 51.3663C27.3716 51.401 27.2369 51.4183 27.1103 51.4583C26.9809 51.497 26.8569 51.5544 26.7316 51.6037C26.7036 51.7157 26.6929 51.8197 26.6556 51.9104C26.6209 51.9984 26.557 52.0717 26.509 52.1504C26.857 52.4317 27.0063 52.7677 26.9956 53.1904C26.9783 53.8744 26.9823 54.5597 26.9823 55.241C26.9823 55.373 27.0116 55.505 27.0276 55.649C27.2303 55.6624 27.401 55.6584 27.5676 55.689C27.6356 55.7024 27.733 55.7757 27.7476 55.8384C27.845 56.225 27.9103 56.613 27.5449 56.9157C27.5329 56.925 27.533 56.9477 27.5183 56.9917C27.5583 57.1464 27.6036 57.325 27.6489 57.5064C27.9343 57.5917 28.2036 57.6064 28.477 57.5984C29.0743 57.5824 29.6729 57.5717 30.2703 57.557C30.4569 57.5517 30.6463 57.5424 30.8329 57.5264C30.9169 57.5197 31.001 57.4917 30.9903 57.369C30.849 57.2583 30.7063 57.1464 30.5183 56.9997ZM20.7289 47.2837C20.8023 47.0117 20.7597 46.7583 20.7677 46.513C20.7743 46.273 20.769 46.033 20.769 45.793C20.769 45.537 20.7676 45.281 20.7703 45.0237C20.7716 44.789 20.7756 44.5517 20.7796 44.289C20.9236 44.2663 21.0356 44.2343 21.1476 44.2343C21.9863 44.2303 22.8236 44.233 23.6623 44.2343C23.7129 44.2343 23.7649 44.2303 23.8156 44.237C24.0316 44.265 24.1929 44.465 24.1276 44.677C24.0543 44.913 24.0636 45.149 24.0636 45.3877C24.061 46.5504 24.061 47.7144 24.061 48.877C24.0596 49.0304 24.061 49.1823 24.061 49.269C24.245 49.4677 24.3823 49.613 24.5369 49.7784C24.8049 49.7637 25.0983 49.773 25.3836 49.729C25.693 49.6797 25.909 49.989 26.245 49.9037C26.2796 49.809 26.3236 49.7024 26.3596 49.5917C26.4276 49.3877 26.5703 49.241 26.7356 49.1197C26.7823 49.085 26.8863 49.0717 26.925 49.101C26.985 49.145 27.0209 49.2304 27.0449 49.305C27.0596 49.3477 27.0263 49.4037 27.0143 49.453C26.969 49.6543 26.9676 49.8557 27.0076 50.065C27.173 50.1917 27.3489 50.2077 27.5623 50.1864C27.5676 50.0517 27.5676 49.9344 27.5796 49.8197C27.6009 49.6357 27.6903 49.5437 27.8757 49.5277C27.9943 49.517 28.1156 49.529 28.2343 49.525C28.3676 49.5197 28.5023 49.5103 28.657 49.501C28.685 49.3343 28.7103 49.1863 28.7383 49.0157C28.6183 48.9383 28.5116 48.8557 28.3956 48.793C27.9583 48.5597 27.5169 48.333 27.0796 48.0984C26.9743 48.0424 26.8676 47.985 26.7756 47.9104C26.6343 47.797 26.5583 47.6477 26.6023 47.4597C26.6516 47.253 26.7903 47.1317 26.9889 47.0957C27.0863 47.077 27.1943 47.0877 27.2916 47.109C27.9769 47.2597 28.6609 47.413 29.3436 47.5744C29.4743 47.6064 29.6022 47.665 29.7222 47.729C30.0849 47.9184 30.3063 48.193 30.245 48.6344C30.229 48.7504 30.2423 48.8717 30.2423 49.0157C30.4009 49.057 30.5436 49.093 30.7049 49.1357C30.7476 49.2357 30.7929 49.3437 30.8396 49.453C30.8703 49.4637 30.901 49.4864 30.9343 49.4877C31.481 49.4944 32.0289 49.5037 32.5756 49.4997C32.8596 49.497 32.9783 49.3503 32.9369 49.0703C32.9169 48.9397 32.8583 48.8157 32.813 48.6704C32.6903 48.6824 32.5889 48.6783 32.4956 48.7023C32.2636 48.7623 32.0316 48.825 31.8076 48.909C31.6049 48.9864 31.4089 48.957 31.2036 48.9397C30.5889 48.8877 30.3183 48.1463 30.6357 47.645C30.7023 47.541 30.8836 47.5303 30.9396 47.6397C31.0009 47.7597 31.0303 47.8957 31.0796 48.0197C31.1423 48.1784 31.3329 48.2237 31.4569 48.1037C31.5276 48.0344 31.5877 47.9477 31.629 47.8557C31.857 47.3784 31.8543 47.377 32.2543 47.1437C32.2343 47.0704 32.2183 46.989 32.1903 46.9104C31.8383 45.8544 31.3369 44.8637 30.8636 43.8583C30.3889 42.8503 29.8063 41.9037 29.2383 40.9503C28.7756 40.1743 28.7596 39.441 29.2703 38.6957C29.3276 38.6117 29.3743 38.5184 29.4396 38.4397C29.6343 38.2037 29.7103 37.929 29.7076 37.6303C29.7049 37.4597 29.713 37.3184 29.9517 37.3504C29.9917 37.3557 30.057 37.273 30.0916 37.2184C30.157 37.1197 30.2076 37.0117 30.2596 36.9157C30.1343 36.5183 30.1517 36.5743 30.445 36.5303C30.465 36.453 30.4836 36.3583 30.5156 36.269C30.5436 36.193 30.5863 36.125 30.6316 36.0357C30.5649 36.0037 30.5236 35.9797 30.481 35.9664C30.3556 35.9317 30.3089 35.8384 30.3609 35.7357C30.4369 35.5864 30.5383 35.4504 30.6409 35.317C30.6903 35.2517 30.7689 35.2077 30.8436 35.1464C30.8663 35.205 30.8916 35.269 30.9183 35.3357C30.9556 35.3237 30.9996 35.3223 31.0076 35.3037C31.053 35.2117 31.0929 35.1184 31.1249 35.0197C31.5595 33.741 31.9916 32.4624 32.4236 31.181C32.8556 29.9037 33.2876 28.6224 33.7183 27.3424C33.7676 27.1957 33.8169 27.0503 33.8609 26.9037C33.8983 26.7837 33.8837 26.6903 33.785 26.5823C33.6477 26.4317 33.681 26.3837 33.917 26.2784C33.9463 26.265 33.9703 26.2397 34.0169 26.2064C34.0356 26.0544 34.0609 25.8863 34.0756 25.717C34.0849 25.629 34.069 25.549 33.977 25.5024C33.825 25.4237 33.8903 25.3024 33.9223 25.1757C33.9676 25.181 34.0196 25.1743 34.0583 25.1943C34.1303 25.2317 34.205 25.2344 34.2303 25.161C34.2543 25.0877 34.265 24.9823 34.2276 24.9263C34.173 24.8437 33.9836 24.905 33.9903 24.725C33.9943 24.6077 33.9889 24.6077 34.1663 24.3544C34.3023 24.3704 34.4516 24.3877 34.6156 24.405C34.7303 24.1464 34.8383 23.9024 34.9369 23.681C35.1049 23.5664 35.3263 23.7477 35.4383 23.453C35.4703 23.7104 35.5917 23.793 35.7677 23.8237C35.933 23.8503 36.0956 23.8957 36.289 23.937C36.3543 23.7957 36.4223 23.6797 36.4636 23.5544C36.8343 22.4704 37.1983 21.385 37.5676 20.301C37.6223 20.1397 37.6797 19.977 37.761 19.829C37.793 19.769 37.9383 18.8397 38.0076 18.7984L37.8703 19.6144C37.8316 19.665 37.8636 19.801 37.845 19.8584C37.3996 21.201 36.9583 22.5437 36.5169 23.8877C36.5076 23.9184 36.5063 23.953 36.4943 24.0183C36.589 24.085 36.6969 24.1583 36.8289 24.249C36.7796 24.6943 36.5809 25.1117 36.4503 25.545C36.3169 25.9823 36.177 26.4157 36.025 26.893C36.1863 26.8504 36.1996 26.7437 36.2343 26.6677C36.8823 25.277 37.5329 23.8877 38.1663 22.489C38.3916 21.9944 38.5716 21.477 38.765 20.9664C39.153 19.9477 39.5303 18.9237 39.9223 17.9063C40.0156 17.6637 40.0663 17.4237 40.053 17.161C40.0063 16.2397 39.965 15.3197 39.9383 14.3983C39.9316 14.169 39.8503 14.0077 39.6729 13.881V13.8824C39.7809 13.781 39.8103 13.6477 39.8103 13.509C39.8156 12.6864 39.8129 11.8663 39.7049 11.0503C39.6942 10.965 39.6756 10.8783 39.6903 10.797C39.7596 10.441 39.7316 10.0824 39.7183 9.72369C39.7143 9.58635 39.7197 9.45036 39.7263 9.31302C39.745 8.86236 39.953 8.52635 40.3663 8.34368C40.7863 8.15835 41.1676 8.27302 41.5223 8.52502C41.537 8.53568 41.5489 8.54769 41.5623 8.55969C42.6009 9.45035 43.6489 10.3303 44.6729 11.237C45.0156 11.541 45.3036 11.909 45.613 12.253C46.193 12.9037 46.7743 13.5557 47.349 14.2104C47.509 14.3904 47.6649 14.5717 47.7983 14.769C48.5116 15.8143 49.2209 16.8637 49.9223 17.917C50.1929 18.3237 50.3583 18.765 50.261 19.2704C50.245 19.349 50.253 19.4437 50.2823 19.517C50.373 19.7517 50.3756 19.9837 50.3116 20.2223C50.2369 20.497 50.2863 20.7503 50.3916 21.0157C51.3743 23.4943 52.3463 25.9784 53.3223 28.4597C53.9729 30.1144 54.625 31.7677 55.2756 33.4224C55.3316 33.565 55.381 33.7077 55.4383 33.8637C55.345 33.9517 55.2609 34.029 55.1796 34.1064C55.1796 34.1477 55.1717 34.185 55.181 34.2143C56.349 37.2237 57.5183 40.2317 58.6877 43.2384C58.8183 43.573 58.9503 43.9064 59.085 44.2384C59.2716 44.697 59.4663 45.1503 59.7463 45.5677C59.9169 45.8197 60.0063 46.1344 60.1996 46.365C60.365 46.5624 60.4356 46.7783 60.5076 47.001C60.6396 47.409 60.4676 47.809 60.0689 47.9704C59.7783 48.089 59.5343 48.265 59.293 48.4583C58.145 49.377 56.9929 50.293 55.8436 51.209C55.6556 51.3584 55.4489 51.4917 55.3529 51.725C55.1743 52.1677 54.8036 52.3557 54.3783 52.4757C53.8356 52.629 53.2929 52.7864 52.7489 52.937C52.1743 53.0984 51.593 53.2437 51.021 53.421C50.7663 53.4997 50.5596 53.5024 50.3663 53.2997C50.2116 53.1397 50.0237 53.0957 49.8023 53.1584C49.1877 53.333 48.5636 53.2437 47.9783 53.0797C47.3783 52.909 46.8023 52.6397 46.317 52.201C45.8383 51.7677 45.4596 51.273 45.193 50.6917C45.101 50.4944 45.0289 50.2824 44.9743 50.069C44.8223 49.4864 44.7836 48.8917 44.7596 48.2917C44.7009 46.753 44.6316 45.2157 44.5556 43.6784C44.5356 43.2877 44.477 42.8997 44.4356 42.5024C44.1543 42.2437 44.145 42.2357 44.129 41.8597C44.113 41.4517 44.125 41.0383 44.0916 40.6303C44.0476 40.1037 43.9663 39.5797 43.9076 39.0544C43.8823 38.8157 43.8636 38.577 43.8609 38.3384C43.8609 38.2677 43.909 38.1544 43.9636 38.133C44.0903 38.085 44.1317 38.2064 44.1703 38.301C44.201 38.3797 44.2276 38.461 44.2556 38.5423C44.4263 39.0143 44.6836 39.4237 45.0476 39.7837C45.3756 40.1063 45.6503 40.481 45.9476 40.8357C46.1449 41.0717 46.3423 41.3077 46.5343 41.549C46.6076 41.641 46.7089 41.737 46.7289 41.8463C46.7876 42.1677 47.0196 42.3383 47.2543 42.5103C47.7796 42.893 48.3183 43.2557 48.8343 43.6504C49.409 44.0904 50.0477 44.4143 50.6877 44.7397C51.145 44.9717 51.5903 45.229 52.0543 45.4477C52.4849 45.6504 52.933 45.821 53.3756 46.0037C53.6743 46.1264 53.9729 46.2464 54.2489 46.357C54.4009 46.2744 54.5116 46.1997 54.633 46.1504C54.7343 46.109 54.8503 46.097 54.9756 46.069C54.4929 45.3637 54.161 44.617 53.7796 43.8997C52.4543 41.4077 51.1423 38.909 49.8276 36.413C49.709 36.189 49.5796 35.9717 49.5689 35.6984C49.5636 35.5557 49.4689 35.4103 49.3983 35.277C48.4383 33.4437 47.4743 31.6117 46.5116 29.781C45.6996 28.237 44.8863 26.6944 44.0703 25.1517C44.017 25.0517 43.9489 24.9584 43.8529 24.8077C43.8009 24.9584 43.7569 25.0477 43.7396 25.141C43.6316 25.7464 43.5249 26.3517 43.4236 26.9597C43.2756 27.8517 43.129 28.745 42.9836 29.6384C42.7916 30.801 42.601 31.965 42.4103 33.1277C42.217 34.3077 42.0103 35.4864 41.8383 36.6704C41.6916 37.6664 41.481 38.6517 41.337 39.649C41.1943 40.629 41.013 41.6037 40.8516 42.5797C40.5076 44.6703 40.1649 46.7597 39.8183 48.8504C39.5916 50.2157 39.3396 51.5757 39.1449 52.9464C39.0543 53.5877 38.9343 54.2237 38.8197 54.861C38.6623 55.7357 38.5276 56.613 38.3796 57.489C38.169 58.7344 37.7396 59.8984 37.0689 60.9677C36.9703 61.1264 36.8556 61.2783 36.7289 61.4157C36.1809 62.005 35.509 62.1383 34.761 61.9063C34.5557 61.8437 34.3649 61.7077 34.1863 61.581C34.0383 61.477 33.8903 61.4277 33.7116 61.4277C32.7356 61.429 31.761 61.4237 30.7863 61.4237C30.753 61.4237 30.7209 61.4397 30.6623 61.4544C30.6223 61.5424 30.5743 61.6477 30.525 61.7584C29.9316 61.9624 29.3343 62.013 28.6996 61.7797C28.5423 61.4677 28.3796 61.137 28.4183 60.7317C27.777 60.6037 27.2797 60.9584 26.709 61.133C26.7237 61.4357 26.5809 61.673 26.3289 61.873C26.1983 61.8944 26.0503 61.9184 25.8863 61.945C25.845 62.189 25.8223 62.4157 25.6596 62.6184C25.5289 62.7797 25.545 63.049 25.325 63.1064V64.5917C25.1516 64.6957 24.9876 64.817 24.8049 64.8983C24.6436 64.969 24.4609 64.9943 24.2316 65.0557C24.4556 65.233 24.7476 65.213 24.8556 65.4544C24.8983 65.5464 24.9437 65.6397 24.9623 65.7384C24.993 65.8877 25.0236 66.0424 24.9143 66.2237C24.8303 66.241 24.7183 66.289 24.6076 66.2877C24.2476 66.2837 23.8903 66.249 23.5317 66.2464C22.7797 66.2397 22.0249 66.2397 21.2729 66.2477" fill="#231F20"/> <path d="M41.0898 10.0125L40.1912 9.75244L35.4951 23.7844L36.3938 24.0458" fill="#231F20"/> </svg>
