<svg width="56" height="56" viewBox="0 0 56 56" fill="none" xmlns="http://www.w3.org/2000/svg">
<circle cx="28" cy="28" r="28" fill="#FFB700"/>
<path d="M21.7209 39.2813C18.8487 34.4081 16.0036 29.5796 13.1569 24.751C14.5308 25.8887 16.0913 26.4823 17.8769 26.3786C19.6561 26.2749 21.1576 25.5712 22.3113 24.1558C22.3528 24.2181 22.3911 24.2675 22.4214 24.3202C25.2825 29.2205 28.1419 34.1209 31.003 39.0228C31.0317 39.0738 31.0668 39.1217 31.0907 39.1744C31.129 39.2589 31.1928 39.2861 31.2838 39.2829C31.4146 39.2765 31.5471 39.2813 31.6779 39.2813C33.5465 39.2813 35.415 39.2813 37.2836 39.2813C37.7335 39.2813 38.1101 39.4424 38.3957 39.7935C38.5856 40.0265 38.6894 40.2945 38.6894 40.5993C38.6894 41.9636 38.6925 43.3295 38.6878 44.6938C38.6862 45.4023 38.1165 45.9847 37.4032 46.0198C37.3378 46.023 37.2724 46.0214 37.207 46.0214C30.1126 46.0214 23.0198 46.0214 15.9254 46.023C15.7036 46.023 15.4866 46.0103 15.2823 45.9193C14.7254 45.6704 14.4478 45.2332 14.4382 44.6268C14.4318 44.1018 14.4366 43.5753 14.4366 43.0503C14.4366 42.262 14.4334 41.4737 14.4382 40.6855C14.443 40.0408 14.7972 39.535 15.3797 39.3563C15.5504 39.3036 15.7387 39.2877 15.9174 39.2861C17.7492 39.2813 19.5811 39.2829 21.4129 39.2829C21.4991 39.2813 21.5853 39.2813 21.7209 39.2813Z" fill="white"/>
<path d="M34.8071 23.1234C34.4976 23.1234 34.2135 23.1234 33.9295 23.1234C33.2944 23.1234 32.6593 23.1107 32.0242 23.1266C31.2296 23.1474 30.6488 22.5346 30.6137 21.8836C30.6121 21.8565 30.5993 21.8293 30.585 21.7783C28.26 21.7783 25.9351 21.7783 23.5783 21.7783C24.274 19.9783 24.3985 18.2055 23.6022 16.4455C23.615 16.4248 23.6182 16.4184 23.623 16.4136C23.6278 16.4088 23.6342 16.404 23.639 16.4008C23.6533 16.396 23.6677 16.3929 23.6804 16.3913C23.6868 16.3897 23.6948 16.3897 23.7028 16.3897C23.7108 16.3897 23.7171 16.3897 23.7251 16.3897C23.7395 16.3897 23.7538 16.3897 23.7682 16.3897C26.0085 16.3897 28.2505 16.3897 30.4908 16.3881C30.4988 16.3881 30.5052 16.3881 30.5131 16.3865C30.5211 16.3865 30.5275 16.3849 30.5355 16.3849C30.5419 16.3833 30.5498 16.3817 30.5562 16.3785C30.5626 16.3753 30.569 16.3721 30.5897 16.3641C30.5977 16.3242 30.6121 16.278 30.6185 16.2285C30.703 15.5663 31.244 15.0637 31.9094 15.0541C32.7918 15.0429 33.6758 15.0493 34.5582 15.0493C34.63 15.0493 34.7018 15.0605 34.7896 15.0684C35.0401 14.7557 35.2954 14.4381 35.5491 14.119C36.2241 13.2765 36.8991 12.4324 37.574 11.5899C37.6474 11.4989 37.7208 11.4064 37.807 11.3298C38.2314 10.9484 38.7995 10.8941 39.3085 11.1862C39.6819 11.4016 40.0473 11.6282 40.4175 11.8484C42.2446 12.9446 44.07 14.0392 45.8987 15.1339C46.0104 15.2009 46.1285 15.2599 46.2465 15.3174C46.9407 15.6572 47.2055 16.5061 46.8274 17.1827C46.4556 17.8465 45.5971 18.0715 44.9493 17.6742C44.1355 17.1747 43.3233 16.6721 42.5063 16.1758C41.4212 15.5168 40.333 14.8658 39.2447 14.21C39.1777 14.1685 39.1075 14.1302 39.0293 14.0855C38.9766 14.1461 38.9288 14.1988 38.8841 14.2546C37.9634 15.4051 37.0427 16.5572 36.1188 17.7061C36.0374 17.8082 35.9943 17.9072 35.9959 18.0412C36.0023 18.7417 36.0007 19.4422 35.9975 20.1427C35.9975 20.2496 36.0182 20.3358 36.0884 20.4235C37.0443 21.6123 37.9969 22.8043 38.9495 23.9947C38.9718 24.0218 38.9974 24.0473 39.0309 24.084C39.141 24.0202 39.2479 23.9596 39.3532 23.8957C41.0781 22.857 42.8015 21.8166 44.5264 20.7762C44.6445 20.7044 44.7562 20.623 44.8727 20.5464C45.3338 20.2416 45.8173 20.2049 46.3008 20.4666C46.7795 20.7251 47.0173 21.1512 46.9965 21.6921C46.9758 22.233 46.7029 22.624 46.2146 22.8681C46.02 22.9655 45.8301 23.0772 45.6434 23.1889C43.5786 24.4255 41.5138 25.6622 39.4505 26.9036C39.1027 27.1126 38.7421 27.2036 38.3431 27.1031C38.0096 27.0185 37.7607 26.8174 37.5501 26.5525C36.9373 25.7802 36.3198 25.0127 35.7039 24.2436C35.4007 23.8638 35.0943 23.4825 34.8071 23.1234Z" fill="white"/>
<path d="M12 19.088C11.9984 16.2461 14.2946 13.9515 17.1365 13.9547C19.9816 13.9579 22.2698 16.2509 22.2682 19.0944C22.265 21.9331 19.9672 24.2213 17.1205 24.2181C14.2914 24.2134 12.0016 21.9188 12 19.088ZM14.1494 19.0864C14.1494 20.7284 15.4834 22.0656 17.1237 22.0672C18.7785 22.0688 20.1188 20.7332 20.1204 19.0832C20.1204 17.4349 18.7769 16.0993 17.1205 16.1025C15.4802 16.1057 14.1494 17.4429 14.1494 19.0864Z" fill="white"/>
<path d="M15.6988 19.0802C15.7036 18.2935 16.353 17.6472 17.1397 17.6504C17.9248 17.6536 18.5742 18.3079 18.571 19.0897C18.5662 19.8764 17.9136 20.5227 17.1301 20.5195C16.3419 20.5147 15.694 19.8636 15.6988 19.0802Z" fill="white"/>
</svg>
