<svg width="56" height="56" viewBox="0 0 56 56" fill="none" xmlns="http://www.w3.org/2000/svg">
<circle cx="28" cy="28" r="28" fill="#FFB700"/>
<path d="M42.0851 19.8641C43.2972 21.7588 44.0991 23.7859 44.5187 25.9845C44.6045 25.9845 44.6772 25.9845 44.7499 25.9845C45.7327 25.9976 46.7173 26.0088 47.7001 26.0274C48.2894 26.0386 48.7985 26.4339 48.9514 26.9971C48.9831 27.1165 49.0017 27.2433 48.9999 27.3645C48.9868 28.6288 48.9663 29.8913 48.9514 31.1557C48.9458 31.5846 48.791 31.9445 48.4628 32.2224C48.211 32.435 47.9127 32.5301 47.5826 32.5245C46.6054 32.5096 45.6283 32.4965 44.6511 32.4816C44.5839 32.4797 44.5149 32.4816 44.4254 32.4816C43.9536 34.6448 43.1126 36.6476 41.8296 38.4752C41.8762 38.5255 41.9191 38.5759 41.9657 38.6243C42.6408 39.3143 43.314 40.0043 43.9909 40.6924C44.2613 40.9666 44.4124 41.2892 44.4161 41.6752C44.4198 42.0482 44.2949 42.3745 44.032 42.6375C43.1163 43.5456 42.2007 44.4519 41.2757 45.3471C40.7126 45.8916 39.8846 45.8711 39.3326 45.3135C38.6407 44.6142 37.9545 43.9093 37.2663 43.2062C37.2179 43.1578 37.1768 43.1037 37.1283 43.0477C36.015 43.7545 34.8682 44.3401 33.6336 44.7951C33.6336 43.0999 33.6336 41.4235 33.6336 39.7358C33.6859 39.7059 33.7455 39.6705 33.8052 39.6388C35.9722 38.4453 37.6095 36.7353 38.7619 34.5553C39.424 33.3021 39.838 31.965 40.017 30.5571C40.3601 27.8568 39.879 25.3113 38.5195 22.9542C37.0836 20.4665 35.0043 18.7098 32.3264 17.6674C31.4592 17.3298 30.5623 17.1116 29.641 16.9848C28.7422 16.8617 27.8415 16.8412 26.9408 16.9196C25.3799 17.0576 23.9011 17.4809 22.5062 18.1932C21.2362 18.8422 20.1173 19.6963 19.1476 20.7425C17.9523 22.0348 17.0739 23.5173 16.5219 25.1901C16.2142 26.1206 16.0259 27.0754 15.9513 28.0545C15.7984 30.0722 16.121 32.0116 16.9359 33.8616C17.708 35.6182 18.8455 37.1026 20.3281 38.3204C20.8092 38.7157 21.3127 39.0812 21.8516 39.3964C21.9262 39.4411 21.9729 39.4822 21.9729 39.581C21.9691 41.2426 21.9691 42.906 21.9691 44.5676C21.9691 44.5732 21.9654 44.5788 21.9523 44.6105C20.7178 44.1573 19.5784 43.527 18.4763 42.7867C18.4259 42.8333 18.3774 42.878 18.329 42.9247C17.6352 43.6034 16.9453 44.286 16.2478 44.9629C15.8114 45.3862 15.2986 45.4925 14.7373 45.2613C14.5751 45.1942 14.4184 45.0841 14.2953 44.9592C13.3983 44.0603 12.5088 43.154 11.6212 42.2459C11.0692 41.6808 11.0822 40.8472 11.6473 40.2896C12.3429 39.6034 13.0422 38.9209 13.7415 38.2365C13.7956 38.1842 13.8552 38.1395 13.913 38.091C12.7009 36.1982 11.899 34.1711 11.4813 31.9744C11.3955 31.9744 11.3228 31.9744 11.2482 31.9744C10.2654 31.9613 9.2808 31.9501 8.29803 31.9315C7.7218 31.9203 7.22202 31.5417 7.05791 30.9953C7.02248 30.8778 6.99824 30.751 7.0001 30.6298C7.01129 29.3468 7.02249 28.0657 7.04487 26.7827C7.05606 26.1561 7.43088 25.6544 7.99219 25.4941C8.13392 25.453 8.28684 25.4362 8.43416 25.4381C9.40574 25.4474 10.3754 25.4624 11.347 25.4773C11.4142 25.4791 11.4832 25.4773 11.5708 25.4773C12.0426 23.3066 12.8892 21.3 14.1685 19.4781C13.8646 19.1667 13.5699 18.8646 13.2734 18.5625C12.8426 18.1224 12.4063 17.686 11.9792 17.2422C11.4944 16.7387 11.4403 16.0132 11.8412 15.4668C11.8897 15.4016 11.9438 15.3419 12.0016 15.2841C12.8967 14.402 13.7918 13.5181 14.6907 12.6379C15.2706 12.071 16.1042 12.0784 16.6749 12.6584C17.3611 13.354 18.0436 14.0533 18.7262 14.7526C18.7728 14.8011 18.8101 14.8608 18.8548 14.9186C20.7477 13.7083 22.7673 12.9064 24.9585 12.4868C24.964 12.4178 24.9715 12.3526 24.9734 12.2854C24.9901 11.3139 25.0069 10.3442 25.0181 9.37257C25.0218 9.04996 25.1076 8.75904 25.309 8.50543C25.5738 8.17349 25.9207 7.99633 26.344 8.00006C27.627 8.01125 28.9082 8.02803 30.1912 8.05227C30.8345 8.06346 31.3399 8.43083 31.5059 8.99401C31.5469 9.13574 31.5637 9.28866 31.5637 9.43411C31.5562 10.4057 31.5394 11.3754 31.5245 12.347C31.5227 12.4141 31.5245 12.4831 31.5245 12.5726C33.6933 13.0444 35.7018 13.8892 37.5218 15.1703C37.5815 15.1144 37.6318 15.0678 37.6803 15.0212C38.3647 14.3498 39.051 13.6803 39.7354 13.0071C40.0095 12.7367 40.3303 12.5857 40.7181 12.582C41.0911 12.5782 41.4175 12.7032 41.6804 12.9661C42.5923 13.8855 43.5042 14.8048 44.4031 15.7372C44.9327 16.2855 44.9122 17.1154 44.3714 17.6524C43.6739 18.3462 42.969 19.0305 42.2641 19.7187C42.2082 19.7709 42.1466 19.8138 42.0851 19.8641Z" fill="white"/>
<path d="M28.8317 49.998C28.8317 49.8992 28.8317 49.819 28.8317 49.7407C28.8317 45.8637 28.8298 41.9848 28.8335 38.1078C28.8335 37.774 28.7478 37.4775 28.4941 37.2519C28.1697 36.9647 27.7911 36.8659 27.3864 37.03C26.9668 37.1997 26.7636 37.5446 26.7226 37.9885C26.717 38.0556 26.7207 38.1246 26.7207 38.1936C26.7207 42.0277 26.7207 45.8618 26.7207 49.6959C26.7207 49.7761 26.7207 49.8544 26.7207 49.9234C26.6983 49.9383 26.6927 49.9458 26.6871 49.9458C26.1724 49.9421 25.654 49.9719 25.1412 49.9234C24.6172 49.8749 24.2013 49.3677 24.1733 48.8418C24.1696 48.7542 24.1696 48.6684 24.1696 48.5807C24.1696 45.3564 24.1603 42.1321 24.1733 38.9078C24.1789 37.4682 23.6456 36.2803 22.605 35.3106C22.1313 34.8667 21.6745 34.4117 21.294 33.884C20.3989 32.6457 19.8861 31.2658 19.7574 29.7403C19.4926 26.6186 21.0833 23.646 23.7164 22.0535C23.9309 21.9229 24.1733 22.005 24.1715 22.322C24.164 23.4297 24.1696 24.5374 24.1696 25.6452C24.1696 26.0685 24.1677 26.4918 24.1696 26.9151C24.1808 28.3286 25.3109 29.4587 26.7263 29.4681C27.4237 29.4737 28.1212 29.4569 28.8168 29.4718C30.2415 29.5016 31.4424 28.2895 31.4257 26.8685C31.4089 25.3002 31.4219 23.7318 31.4219 22.1635C31.4219 22.1132 31.4201 22.0647 31.4219 22.0143C31.435 21.7719 31.6047 21.6731 31.821 21.7849C32.3096 22.0348 32.7702 22.3313 33.1954 22.6801C34.6817 23.8959 35.6756 25.4344 36.0672 27.3142C36.6379 30.0555 35.974 32.4928 34.1166 34.5908C33.8127 34.9339 33.4639 35.2434 33.1077 35.5306C32.1119 36.3362 31.5525 37.3694 31.4107 38.6356C31.3902 38.8202 31.3809 39.0085 31.3809 39.195C31.379 42.3578 31.3809 45.5187 31.3772 48.6814C31.3772 48.853 31.3604 49.0339 31.3044 49.1943C31.1366 49.6735 30.7786 49.9551 30.2769 49.9905C29.8088 50.0241 29.3352 49.998 28.8317 49.998Z" fill="white"/>
</svg>
