<svg width="56" height="56" viewBox="0 0 56 56" fill="none" xmlns="http://www.w3.org/2000/svg">
<circle cx="28" cy="28" r="28" fill="#FFB700"/>
<path d="M35.2878 30.1358C35.2878 31.5947 35.2878 33.0309 35.2878 34.4993C35.9917 34.4993 36.6728 34.4993 37.4108 34.4993C37.4108 32.8279 37.4108 31.1584 37.4108 29.4964C37.7504 29.3446 37.9989 29.3845 38.2816 29.559C40.0384 30.6518 41.818 30.6613 43.5805 29.5799C43.9239 29.3693 44.2218 29.3598 44.5974 29.4964C44.5974 31.1584 44.5974 32.8203 44.5974 34.505C45.3127 34.505 45.9957 34.505 46.728 34.505C46.728 33.0613 46.728 31.6327 46.728 30.149C46.9139 30.2401 47.0429 30.2913 47.1587 30.3634C49.4638 31.792 50.7064 33.8467 50.7823 36.5711C50.807 37.4875 50.788 38.4038 50.788 39.3202C50.788 39.4169 50.7785 39.5118 50.7728 39.6313C49.57 39.6313 48.3937 39.6313 47.1738 39.6313C47.1738 38.1686 47.1738 36.721 47.1738 35.2487C43.0474 35.2487 38.9665 35.2487 34.8382 35.2487C34.8382 36.7077 34.8382 38.1515 34.8382 39.6275C33.5879 39.6275 32.3832 39.6275 31.1538 39.6275C31.1405 39.563 31.1158 39.4985 31.1158 39.4321C31.1196 38.3317 31.0589 37.2275 31.1443 36.1328C31.353 33.4331 32.7209 31.4638 35.081 30.1661C35.117 30.1452 35.1607 30.1377 35.2005 30.1263C35.2138 30.1263 35.229 30.132 35.2878 30.1358Z" fill="white"/>
<path d="M24.8703 39.6388C23.6693 39.6388 22.5044 39.6388 21.2959 39.6388C21.2959 38.1723 21.2959 36.7266 21.2959 35.2543C17.1695 35.2543 13.0886 35.2543 8.96214 35.2543C8.96214 36.6981 8.96214 38.1419 8.96214 39.5724C8.62444 39.6805 5.81657 39.7071 5.2512 39.616C5.24361 39.5553 5.22653 39.4889 5.22653 39.4225C5.22843 38.3373 5.16393 37.2464 5.24931 36.1669C5.46559 33.4387 6.83348 31.439 9.24484 30.1527C9.2676 30.1395 9.29796 30.1414 9.38333 30.1262C9.38333 31.587 9.38333 33.0365 9.38333 34.5087C10.1232 34.5087 10.8081 34.5087 11.5443 34.5087C11.5443 32.8202 11.5443 31.1488 11.5443 29.4887C11.8896 29.3426 12.1362 29.4014 12.4151 29.5741C14.1605 30.6498 15.9287 30.6593 17.6779 29.5931C18.0194 29.3844 18.3192 29.3578 18.6949 29.4887C18.6949 31.1488 18.6949 32.8088 18.6949 34.5011C19.4063 34.5011 20.0893 34.5011 20.8387 34.5011C20.869 33.7935 20.8482 33.0801 20.852 32.3706C20.8558 31.6534 20.852 30.9382 20.852 30.1679C20.9962 30.2324 21.0986 30.2685 21.1878 30.3216C23.472 31.6876 24.7451 33.6834 24.8836 36.3528C24.9367 37.3792 24.8968 38.4113 24.8987 39.4396C24.8968 39.4927 24.8835 39.5477 24.8703 39.6388Z" fill="white"/>
<path d="M21.8442 29.1643C21.8329 29.335 21.8253 29.4735 21.8158 29.6177C21.2637 29.3844 20.7325 29.1264 20.1766 28.9385C19.6207 28.7488 19.0402 28.6293 18.4369 28.4718C19.0895 26.4684 20.3492 24.9942 22.3129 24.0323C22.3129 25.5406 22.3129 26.973 22.3129 28.4339C23.0395 28.4339 23.7377 28.4339 24.4889 28.4339C24.4889 26.7548 24.4889 25.0853 24.4889 23.4328C24.8456 23.319 25.0961 23.3854 25.3731 23.5561C27.0768 24.6034 28.8108 24.6129 30.5278 23.5979C30.8731 23.3949 31.1842 23.3171 31.6016 23.4442C31.6016 25.091 31.6016 26.7473 31.6016 28.4339C32.315 28.4339 32.9828 28.4339 33.698 28.4339C33.698 27.0072 33.698 25.5937 33.698 24.0968C35.5895 25.091 36.817 26.5329 37.4754 28.523C36.32 28.7128 35.2518 29.0827 34.216 29.6671C34.197 29.4849 34.1799 29.3407 34.161 29.1643C30.0687 29.1643 25.9745 29.1643 21.8442 29.1643Z" fill="white"/>
<path d="M42.8729 17.5857C42.8141 18.1738 42.7534 18.7752 42.6927 19.3766C42.632 19.9781 42.5713 20.5795 42.5656 21.1999C42.9147 20.1868 43.2657 19.1736 43.6375 18.0922C44.7227 19.0655 45.2255 20.2797 45.4437 21.6343C46.0223 21.824 46.0773 21.898 46.0792 22.507C46.0811 22.7044 46.0868 22.9017 46.0754 23.099C46.0527 23.4955 45.8952 23.6549 45.4987 23.6852C45.3621 23.6966 45.2255 23.6871 45.1059 23.6871C44.9826 24.2373 44.8973 24.7363 44.7588 25.2201C44.478 26.1952 44.0094 27.0736 43.277 27.7908C41.856 29.1795 39.9417 29.1739 38.5264 27.7737C37.6347 26.8915 37.1547 25.793 36.8948 24.5864C36.836 24.3132 36.8 24.0343 36.7449 23.7118C36.5932 23.7042 36.4433 23.7004 36.2953 23.6852C35.9272 23.6492 35.7641 23.4898 35.7413 23.118C35.7261 22.8656 35.7318 22.6095 35.7375 22.3572C35.7508 21.8867 35.8836 21.7501 36.3674 21.6893C36.4072 21.6837 36.4471 21.6685 36.5078 21.6514C36.6501 20.6535 36.9707 19.7143 37.5816 18.8948C37.8055 18.595 38.073 18.3275 38.3614 17.9993C38.7446 19.1148 39.0994 20.1469 39.4541 21.1771C39.475 21.1733 39.4978 21.1676 39.5187 21.1638C39.3972 19.9515 39.2739 18.7411 39.1544 17.5458C40.2813 16.7737 42.0287 16.9558 42.8729 17.5857ZM37.8339 23.7156C37.8662 24.613 38.2418 25.757 38.7787 26.4798C39.0102 26.7929 39.2853 27.0926 39.5927 27.326C40.4274 27.9577 41.4216 27.952 42.2525 27.3108C43.4136 26.4134 43.8083 25.129 44.015 23.7156C41.9357 23.7156 39.9 23.7156 37.8339 23.7156Z" fill="white"/>
<path d="M10.8555 23.689C10.7094 23.689 10.5728 23.6985 10.4381 23.6871C10.0397 23.6567 9.88416 23.4974 9.86708 23.1008C9.8576 22.8902 9.86329 22.6778 9.86518 22.4672C9.86898 21.8449 9.95815 21.7462 10.6165 21.6646C10.8309 20.2759 11.3621 19.0332 12.4871 18.0334C12.8514 19.0882 13.2005 20.1013 13.5515 21.1163C13.578 21.1107 13.6027 21.1069 13.6292 21.1012C13.5097 19.9078 13.3902 18.7145 13.2688 17.5041C14.521 16.8514 15.7371 16.8913 16.9911 17.5363C16.8754 18.7012 16.7578 19.8585 16.642 21.0177C16.6724 21.0272 16.7028 21.0348 16.7331 21.0443C17.067 20.0824 17.399 19.1205 17.7557 18.0884C18.8409 19.0768 19.3474 20.2892 19.5599 21.6438C20.1101 21.7974 20.1974 21.9132 20.2012 22.4748C20.2031 22.6721 20.2088 22.8694 20.1993 23.0667C20.1803 23.4841 20.0153 23.6529 19.6055 23.6852C19.4802 23.6947 19.3551 23.6966 19.1995 23.7041C19.1445 24.0039 19.1008 24.2923 19.0401 24.5769C18.7878 25.7721 18.3135 26.8573 17.4408 27.7376C15.9932 29.1947 14.0448 29.1928 12.601 27.73C11.7207 26.8383 11.2502 25.7342 10.9997 24.5237C10.9428 24.2676 10.9087 24.0039 10.8555 23.689ZM11.918 23.7174C11.954 23.9489 11.9749 24.1291 12.0109 24.3094C12.195 25.2333 12.5213 26.0965 13.1455 26.8194C13.6862 27.4454 14.3445 27.8515 15.2058 27.7775C15.9723 27.7111 16.5377 27.2785 17.0006 26.6979C17.4635 26.1155 17.7595 25.4496 17.934 24.7305C18.0118 24.408 18.0649 24.0798 18.137 23.7174C16.0387 23.7174 14.0049 23.7174 11.918 23.7174Z" fill="white"/>
<path d="M23.7641 17.6408C23.5877 17.6408 23.4473 17.6483 23.3088 17.6389C22.973 17.6161 22.7928 17.4453 22.7719 17.1076C22.7548 16.8268 22.7586 16.5442 22.77 16.2615C22.7833 15.8669 22.9293 15.7189 23.3335 15.6677C23.3885 15.6601 23.4435 15.6525 23.5289 15.6392C23.7471 14.2428 24.2764 13.0021 25.4033 11.9946C25.7828 13.095 26.1413 14.1385 26.5018 15.1801C26.5208 15.1763 26.5378 15.1706 26.5568 15.1668C26.4335 13.9526 26.3121 12.7365 26.1888 11.5279C27.2057 10.7539 28.8961 10.9019 29.8997 11.5147C29.7802 12.7118 29.6588 13.9393 29.5374 15.1668C29.5544 15.1706 29.5734 15.1744 29.5905 15.1801C29.9414 14.1594 30.2924 13.1387 30.6662 12.0516C31.74 13.0286 32.2579 14.2334 32.4685 15.6183C32.5539 15.6411 32.6317 15.6582 32.7076 15.6809C32.9523 15.753 33.0889 15.9162 33.0946 16.1723C33.1022 16.4816 33.1079 16.7927 33.0946 17.1038C33.0813 17.4491 32.9125 17.6161 32.571 17.6389C32.4192 17.6483 32.2674 17.6408 32.1479 17.6408C31.998 18.2687 31.8937 18.8512 31.7153 19.4109C31.3928 20.4221 30.8635 21.3138 30.0325 21.9986C29.452 22.4786 28.7917 22.7708 28.0272 22.7917C27.0823 22.8163 26.2969 22.4426 25.6272 21.8089C24.7146 20.9457 24.2175 19.8529 23.9444 18.6482C23.8761 18.3332 23.8305 18.0126 23.7641 17.6408ZM31.0418 17.673C28.9644 17.673 26.9268 17.673 24.8247 17.673C24.9024 18.0676 24.9556 18.4281 25.0485 18.7772C25.2819 19.648 25.6651 20.4429 26.3349 21.069C27.2664 21.9379 28.4484 21.9949 29.397 21.1923C30.4708 20.2779 30.8635 19.0371 31.0418 17.673Z" fill="white"/>
<path d="M46.2613 35.8729C46.2613 36.203 46.2613 36.4933 46.2613 36.8196C45.8686 36.8196 45.4872 36.8196 45.0831 36.8196C45.0831 36.5066 45.0831 36.203 45.0831 35.8729C45.474 35.8729 45.8439 35.8729 46.2613 35.8729Z" fill="white"/>
<path d="M32.1062 29.8379C32.5103 29.8379 32.8822 29.8379 33.273 29.8379C33.273 30.1737 33.273 30.4887 33.273 30.8093C32.8746 30.8093 32.5009 30.8093 32.1062 30.8093C32.1062 30.4868 32.1062 30.1851 32.1062 29.8379Z" fill="white"/>
<path d="M24.0906 29.8493C24.0906 30.1718 24.0906 30.4754 24.0906 30.8055C23.7016 30.8055 23.3298 30.8055 22.9314 30.8055C22.9314 30.4906 22.9314 30.187 22.9314 29.8493C23.2975 29.8493 23.6713 29.8493 24.0906 29.8493Z" fill="white"/>
<path d="M10.0075 35.8691C10.3964 35.8691 10.7664 35.8691 11.1591 35.8691C11.1591 36.1954 11.1591 36.4971 11.1591 36.8272C10.7777 36.8272 10.4078 36.8272 10.0075 36.8272C10.0075 36.5141 10.0075 36.203 10.0075 35.8691Z" fill="white"/>
<path d="M19.1976 36.8197C19.1976 36.4915 19.1976 36.1993 19.1976 35.8749C19.5828 35.8749 19.9527 35.8749 20.353 35.8749C20.353 36.1861 20.353 36.4972 20.353 36.8197C19.9603 36.8197 19.579 36.8197 19.1976 36.8197Z" fill="white"/>
<path d="M35.8969 35.8635C36.2896 35.8635 36.6501 35.8635 37.039 35.8635C37.039 36.1879 37.039 36.4991 37.039 36.8349C36.6596 36.8349 36.2896 36.8349 35.8969 36.8349C35.8969 36.5124 35.8969 36.2107 35.8969 35.8635Z" fill="white"/>
</svg>
