<svg width="56" height="56" viewBox="0 0 56 56" fill="none" xmlns="http://www.w3.org/2000/svg">
<circle cx="28" cy="28" r="28" fill="#FFB700"/>
<path d="M15.8324 10C15.9277 10.0117 16.0229 10.0235 16.1195 10.0365C16.3753 10.0705 16.6337 10.0887 16.8843 10.1436C17.2719 10.2271 17.6203 10.4098 17.9087 10.6812C18.1541 10.9122 18.4321 11.0036 18.7623 10.9997C19.942 10.9853 20.7942 11.5439 21.3867 12.5331C21.8278 13.2705 22.0888 14.0783 22.2219 14.924C22.2702 15.232 22.2702 15.5491 22.2741 15.8623C22.2924 17.4375 22.3094 19.0127 22.3172 20.5879C22.3211 21.2522 22.4999 21.8642 22.8184 22.4424C23.0585 22.8783 23.3834 23.2345 23.8011 23.5073C23.9224 23.5869 24.0438 23.6652 24.1834 23.7566C24.1299 23.8022 24.0921 23.8388 24.0516 23.8714C23.3678 24.3999 22.5926 24.7288 21.756 24.9311C21.1035 25.089 20.4484 25.2052 19.7763 25.2287C19.5701 25.2365 19.3639 25.2782 19.1499 25.3057C19.1459 25.3827 19.1407 25.444 19.1407 25.5053C19.1394 25.9791 19.1433 26.4528 19.1381 26.9278C19.1368 27.0505 19.1198 27.1784 19.0846 27.2959C18.329 29.7428 17.5694 32.1885 16.8112 34.6342C16.7877 34.7112 16.7707 34.7908 16.7838 34.89C16.866 34.8103 16.9534 34.7333 17.0304 34.6485C17.5616 34.0665 18.0888 33.4818 18.6213 32.9011C19.0742 32.4077 19.5335 31.921 19.9851 31.4277C20.1012 31.2998 20.2161 31.241 20.4027 31.2763C20.8268 31.3572 21.2562 31.4094 21.683 31.4746C22.0732 31.5347 22.1619 31.442 22.0353 31.0596C21.9153 30.6968 21.7717 30.3418 21.6321 29.9856C21.2849 29.1047 20.9352 28.2264 20.5867 27.3454C20.5567 27.2711 20.5358 27.1941 20.5071 27.1105C20.5476 27.1105 20.5645 27.1053 20.5724 27.1118C21.0879 27.5021 21.696 27.6887 22.2937 27.8949C23.0572 28.1572 23.8285 28.3947 24.5919 28.6557C24.9939 28.7941 25.3776 28.9781 25.7417 29.1986C26.2389 29.5014 26.6069 29.9164 26.851 30.4436C26.9488 30.6538 26.9306 30.7281 26.7348 30.86C26.6656 30.9069 26.5939 30.95 26.5195 30.9879C25.2092 31.6547 23.8911 32.2994 22.4947 32.7732C21.8618 32.9872 21.2301 33.2038 20.5972 33.4192C20.5045 33.4505 20.4171 33.4949 20.3244 33.5249C19.7058 33.7245 19.2595 34.1422 18.8823 34.6498C18.4999 35.164 18.2272 35.7317 18.0536 36.349C18.021 36.4625 17.9897 36.5774 17.9583 36.6909C17.914 36.8567 17.8056 36.9559 17.6347 36.9728C17.3437 37.0028 17.0526 37.0446 16.7616 37.0511C15.5531 37.0759 14.3525 36.9989 13.1557 36.824C12.0321 36.6609 10.915 36.4652 9.81351 36.182C8.69116 35.8948 7.59753 35.5281 6.57698 34.9696C6.03538 34.6733 5.5499 34.3014 5.08269 33.9033C5.01614 33.8459 4.99656 33.7859 5.00048 33.7037C5.03049 32.8606 5.04746 32.0175 5.08922 31.1758C5.13229 30.3027 5.64256 29.7115 6.32771 29.2469C6.74533 28.9637 7.21254 28.7771 7.68758 28.6153C8.45234 28.3556 9.22102 28.1076 9.98839 27.8596C10.5456 27.6795 11.0898 27.4668 11.6001 27.1758C11.6471 27.1484 11.698 27.1275 11.7972 27.0792C11.1538 28.5605 10.5287 29.9973 9.90486 31.4316C10.0093 31.5281 10.1189 31.4981 10.2168 31.489C10.4321 31.4681 10.6448 31.4355 10.8589 31.4055C11.1486 31.3637 11.4396 31.3298 11.7254 31.2724C11.8755 31.2423 11.9786 31.2802 12.0778 31.3846C12.4184 31.7435 12.7695 32.0932 13.1035 32.4573C13.8148 33.2325 14.5182 34.0169 15.2256 34.796C15.2765 34.8521 15.326 34.9108 15.3756 34.9683C15.3887 34.9604 15.4004 34.9526 15.4135 34.9461C15.3926 34.8625 15.373 34.7777 15.3495 34.6942C14.7792 32.6792 14.205 30.6642 13.6412 28.6479C13.4872 28.0985 13.3528 27.5438 13.2288 26.9866C13.1805 26.7712 13.1753 26.5441 13.1688 26.3223C13.1597 25.9947 13.1662 25.6672 13.1662 25.3148C12.9678 25.2991 12.776 25.2796 12.5841 25.2678C11.7332 25.2182 10.8928 25.1073 10.0771 24.8463C9.4494 24.6453 8.85299 24.3804 8.35055 23.9406C8.26833 23.8688 8.19785 23.7853 8.10389 23.6861C8.17306 23.643 8.21352 23.6039 8.2618 23.5895C8.57762 23.4968 8.80862 23.2893 9.01221 23.0453C9.36588 22.6212 9.59296 22.1305 9.76392 21.611C9.93096 21.106 10.0262 20.584 10.0562 20.0541C10.1111 19.0936 10.145 18.1331 10.1854 17.1726C10.2285 16.1625 10.2872 15.155 10.5143 14.1657C10.7101 13.3187 11.052 12.5409 11.5858 11.8545C12.0817 11.2176 12.7342 10.7843 13.4624 10.4607C13.7287 10.3419 14.0079 10.2506 14.2833 10.154C14.4947 10.0796 14.7114 10.0326 14.9371 10.0326C14.9972 10.0326 15.0572 10.0117 15.1185 10C15.3587 10 15.5949 10 15.8324 10Z" fill="white"/>
<path d="M45.9974 40.6165C45.983 40.7261 45.97 40.8345 45.9556 40.9441C45.9139 41.2677 45.8773 41.5927 45.829 41.9164C45.7912 42.1721 45.6528 42.3705 45.4297 42.4997C45.2 42.6315 44.9677 42.7581 44.7302 42.873C42.6773 43.8726 40.5214 44.5539 38.278 44.9715C37.3397 45.1464 36.3948 45.2899 35.4447 45.3734C34.3537 45.4687 33.2588 45.47 32.1638 45.4478C31.5648 45.4348 30.9658 45.4113 30.3668 45.3891C29.6072 45.3604 28.8542 45.2586 28.1038 45.145C26.9671 44.9728 25.8448 44.7327 24.7368 44.4273C23.2829 44.0279 21.8748 43.5085 20.5293 42.8286C20.2813 42.7033 20.0464 42.5519 19.8102 42.4057C19.6392 42.3013 19.5466 42.1408 19.5179 41.9438C19.4761 41.6619 19.4213 41.38 19.3991 41.0955C19.3247 40.1219 19.2738 39.147 19.3521 38.1722C19.4278 37.2403 19.6784 36.366 20.2617 35.6116C20.4967 35.3089 20.7825 35.0674 21.144 34.9304C21.7821 34.6903 22.4216 34.4554 23.0637 34.2244C24.5932 33.6736 26.0797 33.0303 27.4487 32.1428C27.5531 32.075 27.6666 32.0188 27.7762 31.9601C27.7932 31.951 27.8154 31.9549 27.8598 31.9497C27.8963 32.0423 27.9394 32.135 27.972 32.2316C28.3622 33.4139 28.7537 34.5963 29.1387 35.78C29.6281 37.2886 30.111 38.7999 30.5991 40.3085C30.65 40.4664 30.7152 40.6191 30.787 40.8097C30.8327 40.7274 30.8666 40.6831 30.8836 40.6348C31.2203 39.6991 31.5544 38.762 31.8937 37.8263C31.9302 37.7258 31.8911 37.6554 31.8441 37.5757C31.6157 37.1855 31.3795 36.7992 31.1681 36.3999C31.0245 36.1297 30.941 35.8348 30.8823 35.5307C30.7439 34.8116 31.172 34.1239 31.9537 34.0182C32.4679 33.9477 32.9821 33.9438 33.4937 34.0482C34.0901 34.1696 34.4464 34.6028 34.4607 35.2136C34.4699 35.6351 34.3485 36.0267 34.1658 36.3973C34.0248 36.6844 33.8578 36.9585 33.696 37.2338C33.6085 37.3839 33.5093 37.5275 33.418 37.6697C33.6177 38.4462 34.4072 40.61 34.5729 40.8175C35.5426 37.8602 36.4561 34.8978 37.4297 31.9288C37.5589 31.994 37.6646 32.0436 37.7664 32.1011C38.2467 32.3686 38.7217 32.6466 39.2072 32.905C40.4822 33.5836 41.8082 34.1409 43.1967 34.5467C43.4173 34.6107 43.6326 34.6929 43.8506 34.7647C44.4365 34.9591 44.8842 35.3324 45.2248 35.8387C45.6163 36.4208 45.8643 37.0576 45.923 37.7598C45.94 37.9607 45.9491 38.163 45.9661 38.364C45.9713 38.4319 45.9882 38.4984 46 38.565C45.9974 39.2501 45.9974 39.934 45.9974 40.6165Z" fill="white"/>
<path d="M26.1997 21.6071C26.1423 21.2613 26.0797 20.9337 26.0353 20.6022C25.9309 19.8192 25.9348 19.0322 25.987 18.2453C26.0549 17.2365 26.4164 16.3386 26.9815 15.5125C27.3038 15.0401 27.7149 14.6577 28.1821 14.3314C28.2447 14.2884 28.3022 14.2388 28.3779 14.1814C28.323 14.12 28.2761 14.0639 28.2265 14.0104C28.0294 13.7951 27.8976 13.5458 27.8258 13.2639C27.8141 13.2169 27.8023 13.1686 27.801 13.1204C27.7971 13.0029 27.8232 12.9703 27.9459 12.9677C28.0855 12.9638 28.2239 12.9729 28.3635 12.9768C29.234 13.0016 30.1044 13.0499 30.9749 13.0447C31.9433 13.0394 32.9116 12.9886 33.88 12.9494C34.2897 12.9324 34.663 13.0486 35.0297 13.2117C35.7684 13.5406 36.3804 14.0156 36.7811 14.7321C36.845 14.8469 36.909 14.9657 36.9455 15.091C36.9729 15.1876 37.0277 15.2319 37.1113 15.2554C37.1909 15.2789 37.2731 15.2998 37.3553 15.3128C38.047 15.4186 38.5651 15.7827 38.937 16.366C39.262 16.8776 39.4238 17.4401 39.4708 18.0404C39.5374 18.9004 39.4591 19.7526 39.3246 20.6009C39.2803 20.8828 39.2215 21.1621 39.1798 21.444C39.1498 21.645 39.168 21.6606 39.3677 21.6698C39.784 21.6867 40.045 21.9373 40.0529 22.3667C40.0594 22.6655 40.0437 22.967 40.0059 23.2632C39.908 24.0254 39.7279 24.7693 39.4251 25.4779C39.3299 25.6998 39.2072 25.9138 39.0728 26.1161C38.9357 26.321 38.753 26.4684 38.475 26.4032C38.3902 26.3836 38.3419 26.4358 38.3224 26.5102C38.2963 26.6107 38.2793 26.7138 38.2571 26.8156C37.9961 27.9719 37.5654 29.0511 36.7615 29.9464C35.9315 30.8704 34.9018 31.4668 33.6842 31.7226C33.2392 31.8165 32.7811 31.7983 32.3296 31.7774C31.0702 31.7226 29.9831 31.2175 29.0108 30.4528C28.5175 30.0652 28.1677 29.5471 27.8532 29.0081C27.4474 28.3112 27.1629 27.566 27.0036 26.7738C26.9932 26.719 26.9802 26.6655 26.9645 26.612C26.9136 26.441 26.9084 26.4345 26.7178 26.4345C26.5573 26.4345 26.4333 26.3549 26.3407 26.24C26.2402 26.1161 26.1501 25.9816 26.0757 25.842C25.7743 25.2704 25.5994 24.6557 25.4598 24.0293C25.3397 23.4903 25.2784 22.9448 25.2875 22.3915C25.2888 22.2949 25.2992 22.1944 25.3293 22.1043C25.4206 21.829 25.6294 21.6828 25.927 21.6698C25.9896 21.6671 26.0523 21.6606 26.1136 21.6502C26.1384 21.645 26.1619 21.6267 26.1997 21.6071Z" fill="white"/>
</svg>
