<svg xmlns="http://www.w3.org/2000/svg" width="670" height="49" viewBox="0 0 670 49" fill="none"><script xmlns=""/> <path d="M58.5034 18.2762C58.5434 17.9562 58.5687 17.6203 58.578 17.2696C58.5887 16.9189 58.5927 16.4136 58.5927 15.7523C58.5927 12.9883 58.2579 10.6909 57.5874 8.85892C56.9167 7.02559 55.87 5.56826 54.4473 4.48692C53.106 3.44559 51.274 2.70426 48.95 2.26426C46.6274 1.82292 43.0114 1.60292 38.106 1.60292H22.8447C14.8541 1.60292 9.33667 2.86958 6.29134 5.40425C3.24734 7.93758 1.72607 12.4082 1.72607 18.8162V31.0136C1.72607 34.1789 2.13537 36.7963 2.95671 38.8683C3.77804 40.9416 5.09007 42.6896 6.89274 44.1109C8.45407 45.3122 10.3367 46.1643 12.5407 46.6643C14.7434 47.1656 18.1781 47.4149 22.8447 47.4149H38.106C42.8114 47.4149 46.382 47.1856 48.8153 46.7256C51.2487 46.2643 53.1967 45.4936 54.658 44.4123C56.1992 43.2909 57.3313 41.7989 58.0527 39.9349C58.7741 38.0736 59.134 35.7096 59.134 32.8469C59.134 32.2043 59.1047 31.2349 59.0447 29.9323C59.0247 29.7723 59.0141 29.6616 59.0141 29.6016H45.1646V30.0816C45.1646 32.4456 44.4887 34.0629 43.138 34.9336C41.7847 35.8043 38.9367 36.2416 34.59 36.2416H26.6593C22.274 36.2416 19.3394 35.6389 17.8581 34.4376C16.3754 33.2363 15.6354 31.0243 15.6354 27.8003V21.5816C15.6354 17.9749 16.3007 15.6069 17.6327 14.4749C18.9647 13.3443 21.974 12.7789 26.6593 12.7789H37.5941C40.0981 12.7789 41.9246 13.1843 43.0767 13.9949C44.2287 14.8056 44.8047 16.0829 44.8047 17.8256V18.2762H58.5034Z" stroke="black" stroke-width="3" stroke-miterlimit="10"/> <path d="M102.695 47.4156C107.862 47.4156 111.677 47.1796 114.141 46.7103C116.605 46.2396 118.586 45.4343 120.089 44.2916C121.751 43.0103 122.967 41.2929 123.739 39.1396C124.51 36.9876 124.895 34.1876 124.895 30.7436V18.2769C124.895 14.8716 124.51 12.0769 123.739 9.89425C122.967 7.71292 121.751 5.98892 120.089 4.72625C118.607 3.60625 116.609 2.80492 114.095 2.32492C111.582 1.84358 107.782 1.60358 102.695 1.60358H86.6235C81.5568 1.60358 77.7768 1.84358 75.2821 2.32492C72.7888 2.80492 70.7915 3.60625 69.2888 4.72625C67.5662 6.00892 66.3248 7.74226 65.5635 9.92492C64.8035 12.1089 64.4221 15.0716 64.4221 18.8169V31.0129C64.4221 34.4383 64.8035 37.1863 65.5635 39.2596C66.3248 41.3329 67.5662 43.0103 69.2888 44.2916C70.8115 45.4343 72.7834 46.2396 75.2074 46.7103C77.6301 47.1796 81.4554 47.4156 86.6834 47.4156H102.695ZM80.7502 34.4382C79.1382 33.2356 78.3315 31.0236 78.3315 27.7996V21.5809C78.3315 18.1569 79.0981 15.8329 80.6301 14.6103C82.1621 13.3889 85.3914 12.7783 90.3181 12.7783H99.0595C103.886 12.7783 107.091 13.3849 108.673 14.5969C110.255 15.8076 111.046 18.0556 111.046 21.3396V27.6782C111.046 30.9636 110.255 33.2116 108.673 34.4236C107.091 35.6356 103.886 36.2409 99.0595 36.2409H90.3781C85.5714 36.2409 82.3622 35.6396 80.7502 34.4382Z" stroke="black" stroke-width="3" stroke-miterlimit="10"/> <path d="M145.446 36.7216V28.6709H170.68C171.822 28.6709 172.732 29.0269 173.414 29.7376C174.094 30.4482 174.435 31.4042 174.435 32.6056C174.435 33.9269 174.11 34.9442 173.459 35.6549C172.807 36.3656 171.882 36.7216 170.68 36.7216H145.446ZM145.446 19.5682V12.1776H169.448C170.49 12.1776 171.335 12.5189 171.987 13.1989C172.638 13.8802 172.963 14.7709 172.963 15.8722C172.963 17.0749 172.663 17.9909 172.062 18.6216C171.462 19.2522 170.59 19.5682 169.448 19.5682H145.446ZM185.13 43.9909C187.392 42.0696 188.524 38.9949 188.524 34.7682C188.524 31.5442 187.874 29.0762 186.572 27.3629C185.27 25.6509 183.207 24.5656 180.383 24.1042C182.646 23.2442 184.314 22.0456 185.386 20.5149C186.456 18.9816 186.992 17.0256 186.992 14.6402C186.992 10.4349 185.76 7.30158 183.298 5.23891C180.834 3.17624 177.099 2.14291 172.092 2.14291H131.807V46.8749H174.195C179.222 46.8749 182.866 45.9149 185.13 43.9909Z" stroke="black" stroke-width="3" stroke-miterlimit="10"/> <path d="M234.699 14.4912C235.48 15.2925 235.869 16.5739 235.869 18.3365C235.869 20.5592 235.504 22.0965 234.773 22.9472C234.043 23.7979 232.765 24.2245 230.944 24.2245H209.224V13.2898H230.944C232.665 13.2898 233.917 13.6898 234.699 14.4912ZM195.525 2.14318V46.8752H209.224V35.4299H229.591C232.035 35.4299 233.672 35.7592 234.504 36.4205C235.335 37.0818 235.751 38.2939 235.751 40.0565V46.8752H249.419V37.7125C249.419 35.4498 248.828 33.6072 247.647 32.1859C246.464 30.7632 244.692 29.7725 242.329 29.2112C245.012 28.5712 246.926 27.3085 248.067 25.4259C249.208 23.5432 249.78 20.6699 249.78 16.8032C249.78 11.2365 248.497 7.40185 245.933 5.29785C243.37 3.19519 238.544 2.14318 231.453 2.14318H195.525Z" stroke="black" stroke-width="3" stroke-miterlimit="10"/> <path d="M285.71 12.8388L294.391 28.6708H277.209L285.71 12.8388ZM272.041 39.4241H299.289L303.614 46.8748H318.605L294.631 2.14412H277.209L252.785 46.8748H267.685L272.041 39.4241Z" stroke="black" stroke-width="3" stroke-miterlimit="10"/> <path d="M364.18 46.8753L379.02 31.194L393.651 46.8753H411.255L389.775 24.1646L409.512 2.1433H393.049L379.02 17.826L365.111 2.1433H348.048L368.416 24.1646L346.396 46.8753H364.18Z" stroke="black" stroke-width="3" stroke-miterlimit="10"/> <path d="M443.97 13.1084H462.686V2.14303H411.616V13.1084H430.332V46.875H443.97V13.1084Z" stroke="black" stroke-width="3" stroke-miterlimit="10"/> <path d="M481.373 2.14343H467.735V46.8754H481.373V29.9621H487.111L507.359 46.8754H526.345L498.977 24.2248L523.16 2.14343H505.016L487.111 18.7568H481.373V2.14343Z" stroke="black" stroke-width="3" stroke-miterlimit="10"/> <path d="M595.067 12.7633C595.957 13.3953 596.403 14.4913 596.403 16.0526C596.403 17.6153 595.932 18.7406 594.991 19.4326C594.049 20.1246 592.517 20.4686 590.396 20.4686H577.597C575.355 20.4686 573.777 20.1486 572.867 19.5086C571.955 18.8673 571.499 17.7766 571.499 16.234C571.499 14.7113 571.984 13.5953 572.956 12.8833C573.928 12.174 575.475 11.8167 577.597 11.8167H590.396C592.619 11.8167 594.176 12.1327 595.067 12.7633ZM605.235 4.99799C602.511 2.73532 598.176 1.60331 592.228 1.60331H572.25C567.664 1.60331 564.249 2.44465 562.007 4.12598C559.763 5.80865 558.641 8.37265 558.641 11.8167V20.6793C558.641 24.2433 559.937 26.7926 562.532 28.3246C565.125 29.8566 569.547 30.6233 575.795 30.6233H585.528C588.492 30.6233 590.805 30.3633 592.468 29.842C594.129 29.322 595.401 28.4593 596.284 27.258V32.2447C596.284 34.2087 595.772 35.6006 594.75 36.4206C593.729 37.242 591.947 37.6526 589.404 37.6526H576.545C574.463 37.6526 572.936 37.3566 571.965 36.766C570.993 36.1766 570.428 35.1993 570.268 33.838H557.981C557.921 34.478 557.88 34.9633 557.86 35.294C557.84 35.6247 557.831 35.9206 557.831 36.1793C557.831 40.106 559.137 42.9593 561.75 44.742C564.364 46.5247 568.534 47.4153 574.263 47.4153H586.64C595.412 47.4153 601.385 46.4006 604.56 44.3673C607.733 42.3353 609.321 38.634 609.321 33.2673V15.7526C609.321 10.8473 607.958 7.26065 605.235 4.99799Z" stroke="black" stroke-width="3" stroke-miterlimit="10"/> <path d="M635.608 1.60316C631.362 1.60316 628.192 1.83916 626.1 2.30849C624.007 2.78049 622.32 3.58583 621.039 4.72717C619.596 5.9885 618.56 7.7165 617.93 9.9085C617.299 12.1032 616.983 15.0725 616.983 18.8165V31.0138C616.983 34.3992 617.314 37.1525 617.974 39.2752C618.635 41.3978 619.676 43.0712 621.099 44.2925C622.4 45.4338 624.061 46.2405 626.086 46.7098C628.108 47.1805 631.303 47.4152 635.668 47.4152H649.398C653.723 47.4152 656.912 47.1805 658.965 46.7098C661.019 46.2405 662.685 45.4338 663.968 44.2925C665.35 43.0498 666.371 41.3285 667.031 39.1258C667.692 36.9218 668.023 34.1285 668.023 30.7432V18.2765C668.023 14.8712 667.692 12.0725 667.031 9.87916C666.371 7.68583 665.35 5.9685 663.968 4.72717C662.705 3.58583 661.048 2.78049 658.996 2.30849C656.941 1.83916 653.743 1.60316 649.398 1.60316H635.608ZM652.942 13.8752C654.104 15.0872 654.684 17.4952 654.684 21.1005V27.8592C654.684 31.4645 654.088 33.8832 652.898 35.1138C651.705 36.3458 649.327 36.9618 645.763 36.9618H639.303C635.759 36.9618 633.386 36.3418 632.184 35.0992C630.982 33.8565 630.382 31.4845 630.382 27.9792V21.4005C630.382 17.6952 630.956 15.2112 632.108 13.9498C633.26 12.6872 635.659 12.0578 639.303 12.0578H645.763C649.387 12.0578 651.78 12.6632 652.942 13.8752Z" stroke="black" stroke-width="3" stroke-miterlimit="10"/> </svg>
