<svg width="30" height="31" viewBox="0 0 30 31" fill="none" xmlns="http://www.w3.org/2000/svg">
<g clip-path="url(#clip0_402_32)">
<path d="M0.125034 15.2413C0.124305 17.9272 0.81187 20.5499 2.11926 22.8615L0 30.7597L7.91865 28.6404C10.1088 29.8574 12.5628 30.4951 15.0565 30.4953H15.0631C23.2953 30.4953 29.9965 23.6576 30 15.2533C30.0016 11.1808 28.4492 7.35125 25.6288 4.47013C22.8089 1.58925 19.0584 0.00185863 15.0625 0C6.82928 0 0.128554 6.83728 0.125155 15.2413" fill="url(#paint0_linear_402_32)"/>
<path d="M11.3294 8.90938C11.0498 8.27219 10.7556 8.25934 10.4897 8.24816C10.2719 8.23855 10.023 8.23927 9.77434 8.23927C9.52543 8.23927 9.12102 8.33527 8.77918 8.71797C8.437 9.10102 7.47278 10.0267 7.47278 11.9094C7.47278 13.7922 8.81024 15.6117 8.99668 15.8673C9.18336 16.1224 11.5787 20.1096 15.3723 21.6435C18.5251 22.9183 19.1667 22.6647 19.8509 22.6008C20.5353 22.5371 22.0592 21.6754 22.3701 20.7818C22.6813 19.8883 22.6813 19.1224 22.588 18.9624C22.4947 18.8029 22.2458 18.7072 21.8725 18.5159C21.4992 18.3245 19.6643 17.3987 19.3222 17.271C18.98 17.1434 18.7312 17.0797 18.4823 17.4629C18.2334 17.8454 17.5187 18.7072 17.3008 18.9624C17.0832 19.2182 16.8654 19.25 16.4922 19.0586C16.1188 18.8666 14.9168 18.463 13.4907 17.1595C12.3812 16.1451 11.6321 14.8925 11.4144 14.5093C11.1966 14.1267 11.3911 13.9194 11.5782 13.7287C11.7459 13.5572 11.9516 13.2818 12.1384 13.0584C12.3245 12.835 12.3866 12.6755 12.511 12.4203C12.6356 12.1649 12.5732 11.9414 12.4801 11.75C12.3866 11.5586 11.6613 9.66611 11.3294 8.9095" fill="white"/>
</g>
<defs>
<linearGradient id="paint0_linear_402_32" x1="15" y1="30.7597" x2="15" y2="0" gradientUnits="userSpaceOnUse">
<stop stop-color="#1FAF38"/>
<stop offset="1" stop-color="#60D669"/>
</linearGradient>
<clipPath id="clip0_402_32">
<rect width="30" height="31" fill="white"/>
</clipPath>
</defs>
</svg>
