<svg width="223" height="37" viewBox="0 0 223 37" fill="none" xmlns="http://www.w3.org/2000/svg">
<path d="M13.2984 17.6343C11.0781 17.6343 9.25935 16.9182 7.84432 15.4862C6.42928 14.0541 5.65802 12.1748 5.53479 9.84828H1.94621V17.516H0V0.899024H1.94621V8.2098H5.55816C5.74513 5.97786 6.54614 4.18242 7.9633 2.82133C9.37834 1.46023 11.1567 0.780762 13.3005 0.780762C15.6143 0.780762 17.4946 1.56129 18.9415 3.11806C20.3884 4.67698 21.1108 6.70679 21.1108 9.20751C21.1108 11.7082 20.3884 13.738 18.9415 15.297C17.4946 16.8559 15.6143 17.6343 13.2984 17.6343ZM9.07663 4.30499C7.98242 5.57792 7.43426 7.2121 7.43426 9.20751C7.43426 11.2029 7.98242 12.8349 9.07663 14.11C10.1708 15.3851 11.5795 16.0216 13.2984 16.0216C15.0342 16.0216 16.445 15.3851 17.5329 14.11C18.6186 12.8371 19.1625 11.2029 19.1625 9.20751C19.1625 7.2121 18.6186 5.58007 17.5329 4.30499C16.445 3.03205 15.0342 2.39343 13.2984 2.39343C11.5795 2.39343 10.1708 3.03205 9.07663 4.30499Z" fill="white"/>
<path d="M24.23 17.5159V0.898926H34.9957V2.5374H26.1762V17.5159H24.23Z" fill="white"/>
<path d="M42.009 0.898926H43.9785L51.6019 17.5159H49.7024L47.5905 12.9574H38.3949L36.2829 17.5159H34.3601L42.009 0.898926ZM42.9948 2.9868L39.1003 11.3189H46.8872L42.9948 2.9868Z" fill="white"/>
<path d="M54.6763 17.5159V0.898926H60.8208C62.0553 0.898926 63.0645 1.28382 63.8464 2.0493C64.6283 2.81693 65.0192 3.81034 65.0192 5.02737C65.0192 5.86595 64.828 6.60993 64.4455 7.2593C64.0631 7.90867 63.5511 8.39892 62.9094 8.73221C63.8166 8.98594 64.5433 9.49554 65.0915 10.2632C65.6396 11.0308 65.9116 11.9447 65.9116 13.0047C65.9116 14.3336 65.4888 15.4173 64.6453 16.258C63.8018 17.0966 62.7054 17.5159 61.3605 17.5159H54.6763ZM60.2578 2.5374H56.6225V8.04414H60.2578C61.1013 8.04414 61.7833 7.78611 62.2996 7.2722C62.8159 6.7583 63.073 6.09603 63.073 5.28969C63.073 4.48336 62.8159 3.82109 62.2996 3.30718C61.7833 2.79328 61.1034 2.5374 60.2578 2.5374ZM56.6225 15.8774H60.7507C61.6898 15.8774 62.4505 15.5893 63.0369 15.0109C63.6233 14.4325 63.9165 13.6863 63.9165 12.7682C63.9165 11.8651 63.6233 11.1233 63.0369 10.5363C62.4505 9.95139 61.6877 9.65896 60.7507 9.65896H56.6225V15.8774Z" fill="white"/>
<path d="M68.7036 2.5374V0.898926H83.4106V2.5374H77.0302V17.5159H75.084V2.5374H68.7036Z" fill="white"/>
<path d="M87.2857 15.2369C85.7538 13.6694 84.9868 11.6439 84.9868 9.16039C84.9868 6.67688 85.7538 4.64921 87.2857 3.08384C88.8176 1.51633 90.8042 0.733643 93.2433 0.733643C95.6973 0.733643 97.6924 1.51418 99.2243 3.07094C100.758 4.62986 101.525 6.65967 101.525 9.16039C101.525 11.6611 100.758 13.6909 99.2264 15.2498C97.6945 16.8088 95.6995 17.5871 93.2455 17.5871C90.8042 17.5871 88.8176 16.8045 87.2857 15.2369ZM88.6816 4.25787C87.5003 5.5308 86.9118 7.16498 86.9118 9.16039C86.9118 11.1558 87.5024 12.7878 88.6816 14.0629C89.863 15.338 91.3821 15.9745 93.2433 15.9745C95.1194 15.9745 96.6492 15.338 97.8284 14.0629C99.0097 12.79 99.6004 11.1558 99.6004 9.16039C99.6004 7.16498 99.0097 5.53295 97.8284 4.25787C96.6471 2.98493 95.1194 2.34631 93.2433 2.34631C91.3821 2.34631 89.863 2.98493 88.6816 4.25787Z" fill="white"/>
<path d="M104.288 17.5159H102.106L108.743 9.04184L102.388 0.898926H104.594L109.895 7.66355L115.219 0.898926H117.401L111.044 9.04184L117.705 17.5159H115.5L109.893 10.4416L104.288 17.5159Z" fill="white"/>
<path d="M121.387 15.2838C119.855 13.7163 119.088 11.6908 119.088 9.20726C119.088 6.72375 119.855 4.69608 121.387 3.13072C122.919 1.5632 124.906 0.780518 127.345 0.780518C129.799 0.780518 131.794 1.56105 133.326 3.11782C134.858 4.67673 135.625 6.70655 135.625 9.20726C135.625 11.708 134.858 13.7378 133.326 15.2967C131.794 16.8556 129.799 17.634 127.345 17.634C124.906 17.634 122.919 16.8513 121.387 15.2838ZM122.783 4.30474C121.602 5.57768 121.013 7.21185 121.013 9.20726C121.013 11.2027 121.604 12.8347 122.783 14.1098C123.965 15.3849 125.484 16.0213 127.345 16.0213C129.221 16.0213 130.751 15.3849 131.93 14.1098C133.111 12.8369 133.702 11.2027 133.702 9.20726C133.702 7.21185 133.111 5.57983 131.93 4.30474C130.749 3.03181 129.221 2.39319 127.345 2.39319C125.484 2.39319 123.962 3.03181 122.783 4.30474Z" fill="white"/>
<path d="M140.386 0.898926H151.598V17.5159H149.675V2.5374H142.309C142.309 4.48336 142.285 6.15839 142.239 7.55819C142.192 8.95798 142.109 10.2438 141.992 11.4157C141.875 12.5876 141.718 13.5487 141.523 14.2992C141.327 15.0517 141.076 15.6839 140.773 16.1978C140.467 16.7117 140.108 17.0794 139.693 17.3009C139.279 17.5223 138.79 17.6342 138.227 17.6342C137.305 17.6342 136.459 17.2944 135.695 16.6128L136.774 15.4732C137.226 15.8366 137.681 16.0193 138.134 16.0193C138.994 16.0193 139.585 14.9356 139.906 12.766C140.227 10.6008 140.386 6.64434 140.386 0.898926Z" fill="white"/>
<path d="M155.376 21.6701V15.8774H157.581C158.27 15.5613 158.743 14.2906 159 12.0672C159.258 9.84388 159.387 6.11968 159.387 0.898926H170.599V15.8774H173.015V21.6701H171.069V17.5159H157.324V21.6701H155.376ZM159.691 15.8774H168.674V2.5374H161.308C161.308 6.39921 161.191 9.37513 160.955 11.463C160.724 13.5509 160.301 15.0238 159.691 15.8774Z" fill="white"/>
<path d="M188.941 3.96085L178.715 17.5159H176.769V0.898926H178.715V14.454L188.941 0.898926H190.888V17.5159H188.941V3.96085Z" fill="white"/>
<path d="M206.534 17.5159V9.84818H196.588V17.5159H194.642V0.898926H196.588V8.2097H206.534V0.898926H208.457V17.5159H206.534Z" fill="white"/>
<path d="M212.234 17.5159V0.898926H223V2.5374H214.181V17.5159H212.234Z" fill="white"/>
<path d="M25.5941 33.8964L26.0169 34.3329C25.4369 34.9199 24.6911 35.2123 23.7775 35.2123C22.8766 35.2123 22.1436 34.9264 21.5785 34.3544C21.0133 33.7824 20.7307 33.0363 20.7307 32.1182C20.7307 31.2 21.0133 30.456 21.5785 29.8841C22.1436 29.3121 22.8809 29.0261 23.7881 29.0261C24.6954 29.0261 25.439 29.3207 26.019 29.9056L25.5962 30.3421C25.1649 29.8604 24.5721 29.6196 23.8136 29.6196C23.1125 29.6196 22.5431 29.8518 22.1011 30.3163C21.6592 30.7807 21.4382 31.3828 21.4382 32.1203C21.4382 32.8578 21.6592 33.4599 22.1011 33.9243C22.5431 34.3888 23.1146 34.621 23.8136 34.621C24.5743 34.6189 25.1692 34.378 25.5941 33.8964Z" fill="white"/>
<path d="M27.9888 34.3501C27.4257 33.776 27.1453 33.032 27.1453 32.1182C27.1453 31.2065 27.4257 30.4625 27.9888 29.8884C28.5518 29.3143 29.2806 29.0261 30.1751 29.0261C31.0759 29.0261 31.8089 29.3121 32.3699 29.8841C32.9329 30.456 33.2133 31.2022 33.2133 32.1182C33.2133 33.0363 32.9329 33.7803 32.3699 34.3544C31.8068 34.9264 31.0759 35.2123 30.1751 35.2123C29.2806 35.2123 28.5518 34.9242 27.9888 34.3501ZM28.5008 30.3184C28.0674 30.785 27.8507 31.3849 27.8507 32.1182C27.8507 32.8492 28.0674 33.4491 28.5008 33.9179C28.9342 34.3845 29.493 34.6189 30.1751 34.6189C30.8635 34.6189 31.4244 34.3845 31.8578 33.9179C32.2912 33.4513 32.508 32.8514 32.508 32.1182C32.508 31.3871 32.2912 30.7872 31.8578 30.3184C31.4244 29.8518 30.8635 29.6174 30.1751 29.6174C29.493 29.6174 28.9342 29.8518 28.5008 30.3184Z" fill="white"/>
<path d="M34.7896 35.1695V29.0693H37.046C37.4985 29.0693 37.8703 29.2113 38.1572 29.4929C38.444 29.7746 38.5885 30.1401 38.5885 30.5874C38.5885 30.8949 38.5184 31.168 38.3781 31.4066C38.2379 31.6453 38.0488 31.8259 37.8151 31.9463C38.1487 32.0388 38.4143 32.2259 38.6161 32.5076C38.8179 32.7892 38.9178 33.1247 38.9178 33.5139C38.9178 34.002 38.7627 34.3998 38.4525 34.7072C38.1423 35.0147 37.7407 35.1695 37.2478 35.1695H34.7896ZM36.8399 29.6692H35.5056V31.6905H36.8399C37.1501 31.6905 37.3987 31.5959 37.5899 31.4066C37.779 31.2174 37.8746 30.9744 37.8746 30.6799C37.8746 30.3831 37.779 30.1402 37.5899 29.9531C37.3987 29.7639 37.1501 29.6692 36.8399 29.6692ZM35.5056 34.5675H37.0205C37.3647 34.5675 37.6451 34.4621 37.8597 34.2492C38.0743 34.0364 38.1827 33.7633 38.1827 33.4257C38.1827 33.0946 38.0743 32.8215 37.8597 32.6065C37.6451 32.3914 37.3647 32.2839 37.0205 32.2839H35.5056V34.5675Z" fill="white"/>
<path d="M40.5601 35.1695V29.0693H42.6954C43.2414 29.0693 43.6876 29.2457 44.0339 29.6004C44.3802 29.9552 44.5545 30.4132 44.5545 30.9766C44.5545 31.5399 44.3802 31.9979 44.0339 32.3484C43.6855 32.7011 43.2393 32.8752 42.6954 32.8752H41.2739V35.1674H40.5601V35.1695ZM42.6167 29.6692H41.2739V32.2753H42.6167C42.9779 32.2753 43.2733 32.1549 43.5027 31.9141C43.7322 31.6733 43.8469 31.3615 43.8469 30.9766C43.8469 30.5917 43.7343 30.2799 43.507 30.0348C43.2818 29.7918 42.9843 29.6692 42.6167 29.6692Z" fill="white"/>
<path d="M46.1311 35.1695V29.0693H50.2296V29.6714H46.845V31.755H49.9874V32.357H46.845V34.5696H50.2976V35.1717H46.1311V35.1695Z" fill="white"/>
<path d="M51.9612 35.1695V29.0693H52.9003L55.3118 34.1761L57.7318 29.0693H58.6624V35.1695H57.957V30.1595L55.5901 35.1695H55.0483L52.6793 30.1595V35.1695H51.9612Z" fill="white"/>
<path d="M60.4773 35.1695V29.0693H64.5758V29.6714H61.1912V31.755H64.3336V32.357H61.1912V34.5696H64.6438V35.1717H60.4773V35.1695Z" fill="white"/>
<path d="M70.6715 35.1695V32.3549H67.0213V35.1695H66.3074V29.0693H67.0213V31.7528H70.6715V29.0693H71.3769V35.1695H70.6715Z" fill="white"/>
<path d="M77.5594 35.1695V32.3549H73.9092V35.1695H73.1953V29.0693H73.9092V31.7528H77.5594V29.0693H78.2648V35.1695H77.5594Z" fill="white"/>
<path d="M80.0835 35.1695V29.0693H80.7974V31.4045H82.3909C82.9306 31.4045 83.3704 31.5808 83.7125 31.9313C84.0545 32.2839 84.2245 32.7355 84.2245 33.2859C84.2245 33.8428 84.0545 34.2965 83.7125 34.6449C83.3704 34.9932 82.9306 35.1674 82.3909 35.1674H80.0835V35.1695ZM80.7974 34.5675H82.3123C82.6692 34.5675 82.9582 34.4492 83.1813 34.2105C83.4044 33.9719 83.517 33.6644 83.517 33.2859C83.517 32.9075 83.4044 32.6 83.1813 32.3613C82.9582 32.1227 82.6671 32.0044 82.3123 32.0044H80.7974V34.5675ZM86.0411 35.1695H85.3357V29.0693H86.0411V35.1695Z" fill="white"/>
<path d="M87.8599 35.1695V29.0693H91.9584V29.6714H88.5738V31.755H91.7162V32.357H88.5738V34.5696H92.0264V35.1717H87.8599V35.1695Z" fill="white"/>
<path d="M96.3137 36.694V34.5675H97.1232C97.3761 34.4514 97.5503 33.9848 97.6438 33.1698C97.7394 32.3527 97.7861 30.9873 97.7861 29.0693H101.902V34.5675H102.788V36.694H102.074V35.1695H97.0276V36.694H96.3137ZM97.8987 34.5675H101.196V29.6692H98.4915C98.4915 31.0862 98.449 32.1786 98.3619 32.9462C98.2769 33.7138 98.1218 34.2535 97.8987 34.5675Z" fill="white"/>
<path d="M104.607 34.3501C104.044 33.776 103.763 33.032 103.763 32.1182C103.763 31.2065 104.044 30.4625 104.607 29.8884C105.17 29.3143 105.898 29.0261 106.793 29.0261C107.694 29.0261 108.427 29.3121 108.988 29.8841C109.551 30.456 109.831 31.2022 109.831 32.1182C109.831 33.0363 109.551 33.7803 108.988 34.3544C108.425 34.9264 107.694 35.2123 106.793 35.2123C105.898 35.2123 105.17 34.9242 104.607 34.3501ZM105.119 30.3184C104.685 30.785 104.469 31.3849 104.469 32.1182C104.469 32.8492 104.685 33.4491 105.119 33.9179C105.552 34.3845 106.111 34.6189 106.793 34.6189C107.481 34.6189 108.042 34.3845 108.476 33.9179C108.909 33.4513 109.126 32.8514 109.126 32.1182C109.126 31.3871 108.909 30.7872 108.476 30.3184C108.042 29.8518 107.481 29.6174 106.793 29.6174C106.111 29.6174 105.552 29.8518 105.119 30.3184Z" fill="white"/>
<path d="M111.41 35.1695V29.0693H113.545C114.091 29.0693 114.537 29.2457 114.884 29.6004C115.23 29.9552 115.404 30.4132 115.404 30.9766C115.404 31.5399 115.23 31.9979 114.884 32.3484C114.535 32.7011 114.089 32.8752 113.545 32.8752H112.124V35.1674H111.41V35.1695ZM113.467 29.6692H112.124V32.2753H113.467C113.828 32.2753 114.123 32.1549 114.353 31.9141C114.582 31.6733 114.697 31.3615 114.697 30.9766C114.697 30.5917 114.584 30.2799 114.357 30.0348C114.132 29.7918 113.834 29.6692 113.467 29.6692Z" fill="white"/>
<path d="M117.325 34.3501C116.762 33.776 116.481 33.032 116.481 32.1182C116.481 31.2065 116.762 30.4625 117.325 29.8884C117.888 29.3143 118.617 29.0261 119.511 29.0261C120.412 29.0261 121.145 29.3121 121.706 29.8841C122.269 30.456 122.55 31.2022 122.55 32.1182C122.55 33.0363 122.269 33.7803 121.706 34.3544C121.143 34.9264 120.412 35.2123 119.511 35.2123C118.617 35.2123 117.888 34.9242 117.325 34.3501ZM117.837 30.3184C117.404 30.785 117.187 31.3849 117.187 32.1182C117.187 32.8492 117.404 33.4491 117.837 33.9179C118.27 34.3845 118.829 34.6189 119.511 34.6189C120.2 34.6189 120.761 34.3845 121.194 33.9179C121.627 33.4513 121.844 32.8514 121.844 32.1182C121.844 31.3871 121.627 30.7872 121.194 30.3184C120.761 29.8518 120.2 29.6174 119.511 29.6174C118.829 29.6174 118.27 29.8518 117.837 30.3184Z" fill="white"/>
<path d="M127.761 35.1695H127.048V33.0258L126.334 32.2495L124.111 35.1695H123.302L125.868 31.7528L123.491 29.0693H124.343L127.048 32.084V29.0693H127.761V32.084L130.466 29.0693H131.318L128.941 31.7528L131.507 35.1695H130.698L128.475 32.2495L127.761 33.0258V35.1695Z" fill="white"/>
<path d="M137.397 35.1695V32.3549H133.746V35.1695H133.032V29.0693H133.746V31.7528H137.397V29.0693H138.102V35.1695H137.397Z" fill="white"/>
<path d="M139.919 35.1695V29.0693H140.633V31.4045H142.226C142.766 31.4045 143.206 31.5808 143.548 31.9313C143.89 32.2839 144.06 32.7355 144.06 33.2859C144.06 33.8428 143.89 34.2965 143.548 34.6449C143.206 34.9932 142.766 35.1674 142.226 35.1674H139.919V35.1695ZM140.635 34.5675H142.15C142.507 34.5675 142.796 34.4492 143.019 34.2105C143.242 33.9719 143.354 33.6644 143.354 33.2859C143.354 32.9075 143.242 32.6 143.019 32.3613C142.796 32.1227 142.504 32.0044 142.15 32.0044H140.635V34.5675ZM145.878 35.1695H145.173V29.0693H145.878V35.1695Z" fill="white"/>
<path d="M147.695 35.1695V29.0693H151.794V29.6714H148.409V31.755H151.552V32.357H148.409V34.5696H151.862V35.1717H147.695V35.1695Z" fill="white"/>
<path d="M156.152 35.1695V29.0693H158.287C158.833 29.0693 159.279 29.2457 159.625 29.6004C159.972 29.9552 160.146 30.4132 160.146 30.9766C160.146 31.5399 159.972 31.9979 159.625 32.3484C159.277 32.7011 158.831 32.8752 158.287 32.8752H156.866V35.1674H156.152V35.1695ZM158.21 29.6692H156.868V32.2753H158.21C158.572 32.2753 158.867 32.1549 159.096 31.9141C159.326 31.6733 159.441 31.3615 159.441 30.9766C159.441 30.5917 159.328 30.2799 159.101 30.0348C158.873 29.7918 158.576 29.6692 158.21 29.6692Z" fill="white"/>
<path d="M161.722 35.1695V29.0693H165.821V29.6714H162.436V31.755H165.579V32.357H162.436V34.5696H165.889V35.1717H161.722V35.1695Z" fill="white"/>
<path d="M171.987 29.0693V34.5675H174.991V29.0693H175.705V35.1695H167.552V29.0693H168.266V34.5675H171.271V29.0693H171.987Z" fill="white"/>
<path d="M177.515 35.1695V29.0693H181.613V29.6714H178.229V31.755H181.371V32.357H178.229V34.5696H181.681V35.1717H177.515V35.1695Z" fill="white"/>
<path d="M187.709 35.1695V32.3549H184.059V35.1695H183.345V29.0693H184.059V31.7528H187.709V29.0693H188.414V35.1695H187.709Z" fill="white"/>
<path d="M194.702 30.1939L190.947 35.1695H190.233V29.0693H190.947V34.045L194.702 29.0693H195.415V35.1695H194.702V30.1939Z" fill="white"/>
<path d="M196.949 35.1695L198.828 32.572C198.328 32.5656 197.923 32.4 197.61 32.0753C197.298 31.7506 197.141 31.3313 197.141 30.8196C197.141 30.3035 197.3 29.8821 197.619 29.5552C197.937 29.2306 198.35 29.0671 198.855 29.0671H201.171V35.1673H200.457V32.5699H199.605L197.727 35.1673H196.949V35.1695ZM200.453 29.6692H198.93C198.613 29.6692 198.354 29.7767 198.15 29.9917C197.946 30.2068 197.844 30.482 197.844 30.8196C197.844 31.1572 197.946 31.4324 198.15 31.6474C198.354 31.8624 198.613 31.9699 198.93 31.9699H200.453V29.6692Z" fill="white"/>
</svg>
