<svg width="284" height="46" viewBox="0 0 284 46" fill="none" xmlns="http://www.w3.org/2000/svg">
<path d="M0.0493752 45L0 0.0139913L12.6736 0L12.6874 13.1778C18.0674 4.68109 25.4993 0.00399751 33.6265 0.00399751C44.2085 0.00399751 53.5187 7.93306 58.5293 21.2128C60.846 27.353 62.0705 34.3626 62.0705 41.4842V45H49.3969V41.4842C49.3969 35.9097 48.4607 30.483 46.6892 25.79C43.7187 17.9188 38.5916 12.832 33.6265 12.832C29.9608 12.832 26.3071 15.4264 23.3367 20.1395C19.8034 25.744 17.856 33.3253 17.856 41.4862V45.002H0.0493752V45Z" fill="url(#paint0_linear_402_315)"/>
<path d="M62.0686 0.0439453V3.22597C62.0686 9.91381 60.9942 16.5117 58.952 22.384C58.8197 22.7618 58.6834 23.1356 58.5452 23.5073C58.3654 23.995 58.1679 24.4987 57.9665 24.9904C56.8467 27.7067 55.5175 30.2352 54.0105 32.4938C52.5668 34.6584 50.9829 36.5612 49.2863 38.1842C44.7241 42.5435 39.3402 44.8781 33.6522 44.8781C28.4915 44.8781 23.2834 42.8733 18.9818 39.2416L17.9548 38.3701C18.3044 32.7216 19.602 27.4549 21.7271 23.0596C21.7271 23.0596 23.4868 25.682 24.9957 27.3789C27.7528 30.479 30.3243 32.048 33.6522 32.048C37.8925 32.048 42.1408 28.4723 45.1941 22.402C45.4133 21.9723 45.6207 21.5306 45.8261 21.0769C45.9821 20.7351 46.1303 20.3893 46.2745 20.0395C47.1277 17.9728 47.8209 15.7282 48.3304 13.3777C48.8064 11.195 49.1244 8.93441 49.2824 6.63185C49.3594 5.50855 49.3989 4.36925 49.3989 3.22597V0.0439453H62.0686Z" fill="url(#paint1_linear_402_315)"/>
<path d="M89.0708 22.7097C87.0069 22.7097 85.3163 22.0441 84.001 20.713C82.6856 19.3818 81.9687 17.6349 81.8541 15.4722H78.5183V22.5998H76.7092V7.15339H78.5183V13.9492H81.8758C82.0496 11.8745 82.7942 10.2055 84.1116 8.94028C85.4269 7.67506 87.08 7.04346 89.0728 7.04346C91.2236 7.04346 92.9714 7.76901 94.3164 9.2161C95.6614 10.6652 96.3329 12.552 96.3329 14.8766C96.3329 17.2011 95.6614 19.088 94.3164 20.5371C92.9714 21.9862 91.2235 22.7097 89.0708 22.7097ZM85.1465 10.3194C84.1293 11.5027 83.6198 13.0217 83.6198 14.8766C83.6198 16.7314 84.1293 18.2485 85.1465 19.4337C86.1636 20.619 87.473 21.2106 89.0708 21.2106C90.6844 21.2106 91.9958 20.619 93.007 19.4337C94.0162 18.2505 94.5218 16.7314 94.5218 14.8766C94.5218 13.0217 94.0162 11.5047 93.007 10.3194C91.9958 9.13615 90.6844 8.54252 89.0708 8.54252C87.473 8.54252 86.1636 9.13615 85.1465 10.3194Z" fill="white"/>
<path d="M99.2322 22.5997V7.15332H109.24V8.67637H101.041V22.5997H99.2322Z" fill="white"/>
<path d="M115.759 7.15332H117.59L124.676 22.5997H122.91L120.947 18.3623H112.399L110.436 22.5997H108.649L115.759 7.15332ZM116.675 9.09411L113.055 16.8393H120.294L116.675 9.09411Z" fill="white"/>
<path d="M127.534 22.5997V7.15332H133.246C134.393 7.15332 135.331 7.5111 136.058 8.22265C136.785 8.93621 137.148 9.85964 137.148 10.9909C137.148 11.7704 136.971 12.462 136.615 13.0656C136.26 13.6693 135.784 14.125 135.187 14.4348C136.03 14.6706 136.706 15.1443 137.215 15.8579C137.725 16.5715 137.978 17.4209 137.978 18.4063C137.978 19.6415 137.585 20.6489 136.801 21.4304C136.017 22.21 134.997 22.5997 133.747 22.5997H127.534ZM132.722 8.67637H129.343V13.7952H132.722C133.506 13.7952 134.14 13.5553 134.62 13.0776C135.1 12.5999 135.339 11.9843 135.339 11.2348C135.339 10.4852 135.1 9.86963 134.62 9.39193C134.14 8.91422 133.508 8.67637 132.722 8.67637ZM129.343 21.0767H133.18C134.053 21.0767 134.76 20.8088 135.306 20.2712C135.851 19.7335 136.123 19.0399 136.123 18.1865C136.123 17.347 135.851 16.6574 135.306 16.1117C134.76 15.5681 134.051 15.2963 133.18 15.2963H129.343V21.0767Z" fill="white"/>
<path d="M140.573 8.67637V7.15332H154.244V8.67637H148.313V22.5997H146.504V8.67637H140.573Z" fill="white"/>
<path d="M157.602 20.5251C156.178 19.068 155.465 17.1851 155.465 14.8766C155.465 12.568 156.178 10.6832 157.602 9.2281C159.026 7.771 160.872 7.04346 163.139 7.04346C165.421 7.04346 167.275 7.76901 168.699 9.2161C170.125 10.6652 170.838 12.552 170.838 14.8766C170.838 17.2011 170.125 19.088 168.701 20.5371C167.277 21.9862 165.423 22.7097 163.141 22.7097C160.872 22.7097 159.026 21.9822 157.602 20.5251ZM158.899 10.3194C157.801 11.5027 157.254 13.0217 157.254 14.8766C157.254 16.7314 157.803 18.2485 158.899 19.4337C159.997 20.619 161.409 21.2106 163.139 21.2106C164.883 21.2106 166.305 20.619 167.402 19.4337C168.5 18.2505 169.049 16.7314 169.049 14.8766C169.049 13.0217 168.5 11.5047 167.402 10.3194C166.303 9.13615 164.883 8.54252 163.139 8.54252C161.409 8.54252 159.997 9.13615 158.899 10.3194Z" fill="white"/>
<path d="M173.65 22.5997H171.622L177.792 14.7226L171.885 7.15332H173.935L178.862 13.4414L183.812 7.15332H185.84L179.931 14.7226L186.123 22.5997H184.073L178.86 16.0238L173.65 22.5997Z" fill="white"/>
<path d="M189.545 20.5251C188.121 19.068 187.408 17.1851 187.408 14.8766C187.408 12.568 188.121 10.6832 189.545 9.2281C190.969 7.771 192.816 7.04346 195.083 7.04346C197.364 7.04346 199.219 7.76901 200.643 9.2161C202.067 10.6652 202.78 12.552 202.78 14.8766C202.78 17.2011 202.067 19.088 200.643 20.5371C199.219 21.9862 197.364 22.7097 195.083 22.7097C192.816 22.7097 190.969 21.9822 189.545 20.5251ZM190.843 10.3194C189.745 11.5027 189.198 13.0217 189.198 14.8766C189.198 16.7314 189.747 18.2485 190.843 19.4337C191.941 20.619 193.353 21.2106 195.083 21.2106C196.827 21.2106 198.249 20.619 199.345 19.4337C200.443 18.2505 200.993 16.7314 200.993 14.8766C200.993 13.0217 200.443 11.5047 199.345 10.3194C198.247 9.13615 196.827 8.54252 195.083 8.54252C193.353 8.54252 191.939 9.13615 190.843 10.3194Z" fill="white"/>
<path d="M207.206 7.15332H217.628V22.5997H215.84V8.67637H208.993C208.993 10.4852 208.971 12.0423 208.928 13.3435C208.885 14.6447 208.807 15.8399 208.699 16.9292C208.59 18.0186 208.444 18.912 208.262 19.6096C208.081 20.3091 207.848 20.8968 207.565 21.3745C207.281 21.8522 206.947 22.194 206.562 22.3998C206.177 22.6057 205.723 22.7096 205.199 22.7096C204.342 22.7096 203.556 22.3938 202.845 21.7602L203.848 20.7009C204.269 21.0387 204.692 21.2086 205.112 21.2086C205.912 21.2086 206.461 20.2012 206.759 18.1845C207.058 16.1717 207.206 12.494 207.206 7.15332Z" fill="white"/>
<path d="M221.139 26.4613V21.0767H223.189C223.829 20.7828 224.27 19.6016 224.509 17.5349C224.748 15.4681 224.868 12.0063 224.868 7.15332H235.29V21.0767H237.536V26.4613H235.727V22.5997H222.95V26.4613H221.139ZM225.151 21.0767H233.501V8.67637H226.654C226.654 12.2661 226.545 15.0324 226.326 16.9732C226.11 18.914 225.717 20.2831 225.151 21.0767Z" fill="white"/>
<path d="M252.341 9.99955L242.835 22.5997H241.026V7.15332H242.835V19.7535L252.341 7.15332H254.15V22.5997H252.341V9.99955Z" fill="white"/>
<path d="M268.694 22.5997V15.4721H259.449V22.5997H257.64V7.15332H259.449V13.9491H268.694V7.15332H270.481V22.5997H268.694Z" fill="white"/>
<path d="M273.993 22.5997V7.15332H284V8.67637H275.802V22.5997H273.993Z" fill="white"/>
<path d="M100.5 37.8265L100.893 38.2322C100.354 38.7779 99.6609 39.0497 98.8117 39.0497C97.9742 39.0497 97.2929 38.7839 96.7675 38.2522C96.2422 37.7206 95.9795 37.027 95.9795 36.1735C95.9795 35.3201 96.2422 34.6285 96.7675 34.0968C97.2929 33.5651 97.9782 33.2993 98.8215 33.2993C99.6649 33.2993 100.356 33.5731 100.895 34.1168L100.502 34.5226C100.101 34.0748 99.5503 33.851 98.8452 33.851C98.1935 33.851 97.6642 34.0668 97.2534 34.4986C96.8426 34.9303 96.6372 35.49 96.6372 36.1755C96.6372 36.8611 96.8426 37.4208 97.2534 37.8525C97.6642 38.2842 98.1955 38.5001 98.8452 38.5001C99.5523 38.4981 100.105 38.2742 100.5 37.8265Z" fill="white"/>
<path d="M102.726 38.2482C102.203 37.7146 101.942 37.023 101.942 36.1735C101.942 35.3261 102.203 34.6345 102.726 34.1008C103.25 33.5671 103.927 33.2993 104.758 33.2993C105.596 33.2993 106.277 33.5651 106.799 34.0968C107.322 34.6285 107.583 35.3221 107.583 36.1735C107.583 37.027 107.322 37.7186 106.799 38.2522C106.275 38.7839 105.596 39.0497 104.758 39.0497C103.927 39.0497 103.25 38.7819 102.726 38.2482ZM103.202 34.5006C102.799 34.9343 102.598 35.492 102.598 36.1735C102.598 36.8531 102.799 37.4108 103.202 37.8465C103.605 38.2802 104.125 38.4981 104.758 38.4981C105.398 38.4981 105.92 38.2802 106.323 37.8465C106.726 37.4128 106.927 36.8551 106.927 36.1735C106.927 35.4939 106.726 34.9363 106.323 34.5006C105.92 34.0668 105.398 33.849 104.758 33.849C104.125 33.849 103.605 34.0668 103.202 34.5006Z" fill="white"/>
<path d="M109.048 39.0098V33.3394H111.146C111.566 33.3394 111.912 33.4713 112.178 33.7331C112.445 33.9949 112.579 34.3347 112.579 34.7505C112.579 35.0363 112.514 35.2901 112.384 35.512C112.254 35.7339 112.078 35.9018 111.861 36.0137C112.171 36.0996 112.417 36.2735 112.605 36.5354C112.793 36.7972 112.886 37.109 112.886 37.4708C112.886 37.9245 112.741 38.2943 112.453 38.5801C112.165 38.8659 111.791 39.0098 111.333 39.0098H109.048ZM110.954 33.897H109.714V35.7758H110.954C111.242 35.7758 111.473 35.6879 111.651 35.512C111.827 35.3361 111.916 35.1103 111.916 34.8364C111.916 34.5606 111.827 34.3347 111.651 34.1608C111.473 33.985 111.242 33.897 110.954 33.897ZM109.714 38.4502H111.122C111.442 38.4502 111.703 38.3522 111.902 38.1544C112.101 37.9565 112.202 37.7026 112.202 37.3888C112.202 37.081 112.101 36.8272 111.902 36.6273C111.703 36.4274 111.442 36.3275 111.122 36.3275H109.714V38.4502Z" fill="white"/>
<path d="M114.412 39.0098V33.3394H116.397C116.905 33.3394 117.319 33.5033 117.641 33.833C117.963 34.1628 118.125 34.5886 118.125 35.1123C118.125 35.6359 117.963 36.0617 117.641 36.3875C117.317 36.7153 116.903 36.8772 116.397 36.8772H115.076V39.0078H114.412V39.0098ZM116.324 33.897H115.076V36.3195H116.324C116.66 36.3195 116.934 36.2076 117.148 35.9837C117.361 35.7598 117.467 35.47 117.467 35.1123C117.467 34.7545 117.363 34.4647 117.151 34.2368C116.942 34.0109 116.666 33.897 116.324 33.897Z" fill="white"/>
<path d="M119.591 39.0098V33.3394H123.4V33.899H120.254V35.8358H123.175V36.3955H120.254V38.4522H123.464V39.0118H119.591V39.0098Z" fill="white"/>
<path d="M125.01 39.0098V33.3394H125.883L128.125 38.0864L130.374 33.3394H131.239V39.0098H130.583V34.3527L128.383 39.0098H127.88L125.678 34.3527V39.0098H125.01Z" fill="white"/>
<path d="M132.926 39.0098V33.3394H136.736V33.899H133.59V35.8358H136.511V36.3955H133.59V38.4522H136.799V39.0118H132.926V39.0098Z" fill="white"/>
<path d="M142.402 39.0098V36.3935H139.009V39.0098H138.345V33.3394H139.009V35.8338H142.402V33.3394H143.058V39.0098H142.402Z" fill="white"/>
<path d="M148.805 39.0098V36.3935H145.412V39.0098H144.748V33.3394H145.412V35.8338H148.805V33.3394H149.461V39.0098H148.805Z" fill="white"/>
<path d="M151.151 39.0098V33.3394H151.815V35.51H153.296C153.798 35.51 154.207 35.6739 154.525 35.9997C154.843 36.3275 155.001 36.7472 155.001 37.2589C155.001 37.7766 154.843 38.1983 154.525 38.5221C154.207 38.8459 153.798 39.0078 153.296 39.0078H151.151V39.0098ZM151.815 38.4502H153.223C153.555 38.4502 153.824 38.3402 154.031 38.1184C154.238 37.8965 154.343 37.6107 154.343 37.2589C154.343 36.9071 154.238 36.6213 154.031 36.3995C153.824 36.1776 153.553 36.0677 153.223 36.0677H151.815V38.4502ZM156.689 39.0098H156.034V33.3394H156.689V39.0098Z" fill="white"/>
<path d="M158.38 39.0098V33.3394H162.19V33.899H159.043V35.8358H161.965V36.3955H159.043V38.4522H162.253V39.0118H158.38V39.0098Z" fill="white"/>
<path d="M166.238 40.4269V38.4502H166.991C167.226 38.3422 167.388 37.9085 167.475 37.151C167.564 36.3915 167.607 35.1222 167.607 33.3394H171.433V38.4502H172.256V40.4269H171.593V39.0098H166.902V40.4269H166.238ZM167.712 38.4502H170.777V33.897H168.263C168.263 35.2142 168.223 36.2296 168.142 36.9431C168.063 37.6567 167.919 38.1584 167.712 38.4502Z" fill="white"/>
<path d="M173.947 38.2482C173.424 37.7146 173.163 37.023 173.163 36.1735C173.163 35.3261 173.424 34.6345 173.947 34.1008C174.47 33.5671 175.148 33.2993 175.979 33.2993C176.817 33.2993 177.498 33.5651 178.019 34.0968C178.543 34.6285 178.803 35.3221 178.803 36.1735C178.803 37.027 178.543 37.7186 178.019 38.2522C177.496 38.7839 176.817 39.0497 175.979 39.0497C175.148 39.0497 174.47 38.7819 173.947 38.2482ZM174.423 34.5006C174.02 34.9343 173.819 35.492 173.819 36.1735C173.819 36.8531 174.02 37.4108 174.423 37.8465C174.826 38.2802 175.345 38.4981 175.979 38.4981C176.619 38.4981 177.141 38.2802 177.543 37.8465C177.946 37.4128 178.148 36.8551 178.148 36.1735C178.148 35.4939 177.946 34.9363 177.543 34.5006C177.141 34.0668 176.619 33.849 175.979 33.849C175.345 33.849 174.826 34.0668 174.423 34.5006Z" fill="white"/>
<path d="M180.271 39.0098V33.3394H182.256C182.763 33.3394 183.178 33.5033 183.5 33.833C183.822 34.1628 183.984 34.5886 183.984 35.1123C183.984 35.6359 183.822 36.0617 183.5 36.3875C183.176 36.7153 182.761 36.8772 182.256 36.8772H180.934V39.0078H180.271V39.0098ZM182.183 33.897H180.934V36.3195H182.183C182.518 36.3195 182.793 36.2076 183.006 35.9837C183.219 35.7598 183.326 35.47 183.326 35.1123C183.326 34.7545 183.221 34.4647 183.01 34.2368C182.801 34.0109 182.524 33.897 182.183 33.897Z" fill="white"/>
<path d="M185.769 38.2482C185.246 37.7146 184.985 37.023 184.985 36.1735C184.985 35.3261 185.246 34.6345 185.769 34.1008C186.293 33.5671 186.97 33.2993 187.801 33.2993C188.639 33.2993 189.32 33.5651 189.842 34.0968C190.365 34.6285 190.626 35.3221 190.626 36.1735C190.626 37.027 190.365 37.7186 189.842 38.2522C189.318 38.7839 188.639 39.0497 187.801 39.0497C186.97 39.0497 186.293 38.7819 185.769 38.2482ZM186.245 34.5006C185.842 34.9343 185.641 35.492 185.641 36.1735C185.641 36.8531 185.842 37.4108 186.245 37.8465C186.648 38.2802 187.167 38.4981 187.801 38.4981C188.441 38.4981 188.963 38.2802 189.366 37.8465C189.769 37.4128 189.97 36.8551 189.97 36.1735C189.97 35.4939 189.769 34.9363 189.366 34.5006C188.963 34.0668 188.441 33.849 187.801 33.849C187.167 33.849 186.648 34.0668 186.245 34.5006Z" fill="white"/>
<path d="M195.47 39.0098H194.807V37.0171L194.143 36.2955L192.077 39.0098H191.325L193.711 35.8338L191.501 33.3394H192.293L194.807 36.1416V33.3394H195.47V36.1416L197.985 33.3394H198.777L196.567 35.8338L198.952 39.0098H198.2L196.134 36.2955L195.47 37.0171V39.0098Z" fill="white"/>
<path d="M204.427 39.0098V36.3935H201.034V39.0098H200.37V33.3394H201.034V35.8338H204.427V33.3394H205.083V39.0098H204.427Z" fill="white"/>
<path d="M206.771 39.0098V33.3394H207.435V35.51H208.916C209.418 35.51 209.827 35.6739 210.145 35.9997C210.463 36.3275 210.621 36.7472 210.621 37.2589C210.621 37.7766 210.463 38.1983 210.145 38.5221C209.827 38.8459 209.418 39.0078 208.916 39.0078H206.771V39.0098ZM207.437 38.4502H208.845C209.177 38.4502 209.446 38.3402 209.653 38.1184C209.86 37.8965 209.965 37.6107 209.965 37.2589C209.965 36.9071 209.86 36.6213 209.653 36.3995C209.446 36.1776 209.175 36.0677 208.845 36.0677H207.437V38.4502ZM212.311 39.0098H211.656V33.3394H212.311V39.0098Z" fill="white"/>
<path d="M214 39.0098V33.3394H217.81V33.899H214.664V35.8358H217.585V36.3955H214.664V38.4522H217.873V39.0118H214V39.0098Z" fill="white"/>
<path d="M221.861 39.0098V33.3394H223.845C224.353 33.3394 224.768 33.5033 225.09 33.833C225.412 34.1628 225.574 34.5886 225.574 35.1123C225.574 35.6359 225.412 36.0617 225.09 36.3875C224.766 36.7153 224.351 36.8772 223.845 36.8772H222.524V39.0078H221.861V39.0098ZM223.774 33.897H222.526V36.3195H223.774C224.11 36.3195 224.385 36.2076 224.598 35.9837C224.811 35.7598 224.918 35.47 224.918 35.1123C224.918 34.7545 224.813 34.4647 224.602 34.2368C224.391 34.0109 224.114 33.897 223.774 33.897Z" fill="white"/>
<path d="M227.039 39.0098V33.3394H230.849V33.899H227.703V35.8358H230.624V36.3955H227.703V38.4522H230.912V39.0118H227.039V39.0098Z" fill="white"/>
<path d="M236.58 33.3394V38.4502H239.373V33.3394H240.037V39.0098H232.458V33.3394H233.122V38.4502H235.915V33.3394H236.58Z" fill="white"/>
<path d="M241.719 39.0098V33.3394H245.529V33.899H242.383V35.8358H245.304V36.3955H242.383V38.4522H245.592V39.0118H241.719V39.0098Z" fill="white"/>
<path d="M251.195 39.0098V36.3935H247.802V39.0098H247.139V33.3394H247.802V35.8338H251.195V33.3394H251.851V39.0098H251.195Z" fill="white"/>
<path d="M257.695 34.3847L254.205 39.0098H253.542V33.3394H254.205V37.9645L257.695 33.3394H258.359V39.0098H257.695V34.3847Z" fill="white"/>
<path d="M259.785 39.0099L261.531 36.5954C261.066 36.5894 260.689 36.4355 260.399 36.1337C260.109 35.8319 259.962 35.4421 259.962 34.9664C259.962 34.4867 260.111 34.0949 260.407 33.7911C260.703 33.4893 261.086 33.3374 261.556 33.3374H263.709V39.0079H263.045V36.5934H262.253L260.508 39.0079H259.785V39.0099ZM263.041 33.8971H261.625C261.331 33.8971 261.09 33.997 260.901 34.1969C260.711 34.3967 260.616 34.6526 260.616 34.9664C260.616 35.2802 260.711 35.536 260.901 35.7359C261.09 35.9358 261.331 36.0357 261.625 36.0357H263.041V33.8971Z" fill="white"/>
<defs>
<linearGradient id="paint0_linear_402_315" x1="-4.16576" y1="4.63797" x2="69.0744" y2="56.8116" gradientUnits="userSpaceOnUse">
<stop stop-color="#A16300"/>
<stop offset="0.014" stop-color="#A86900"/>
<stop offset="0.0895" stop-color="#C78500"/>
<stop offset="0.1682" stop-color="#E09B00"/>
<stop offset="0.2505" stop-color="#F1AB00"/>
<stop offset="0.3387" stop-color="#FCB400"/>
<stop offset="0.4432" stop-color="#FFB700"/>
<stop offset="0.7679" stop-color="#CA8700"/>
<stop offset="1" stop-color="#A16300"/>
</linearGradient>
<linearGradient id="paint1_linear_402_315" x1="21.2765" y1="42.3632" x2="65.0275" y2="7.04761" gradientUnits="userSpaceOnUse">
<stop stop-color="#A16300"/>
<stop offset="0.0131" stop-color="#A86900"/>
<stop offset="0.0838" stop-color="#C78500"/>
<stop offset="0.1576" stop-color="#E09B00"/>
<stop offset="0.2347" stop-color="#F1AB00"/>
<stop offset="0.3174" stop-color="#FCB400"/>
<stop offset="0.4153" stop-color="#FFB700"/>
<stop offset="0.6065" stop-color="#FCB500"/>
<stop offset="0.7533" stop-color="#F2AE00"/>
<stop offset="0.8849" stop-color="#E2A200"/>
<stop offset="0.9888" stop-color="#CF9400"/>
</linearGradient>
</defs>
</svg>
