<svg width="58" height="42" viewBox="0 0 58 42" fill="none" xmlns="http://www.w3.org/2000/svg">
<path d="M0.0453978 41.3751L0 0.0128642L11.6527 0L11.6654 12.1163C16.612 4.30401 23.4452 0.0036755 30.9177 0.0036755C40.6474 0.0036755 49.2076 7.29403 53.8146 19.504C55.9446 25.1496 57.0705 31.5946 57.0705 38.1425V41.3751H45.4178V38.1425C45.4178 33.017 44.557 28.0275 42.9282 23.7125C40.197 16.4754 35.4829 11.7984 30.9177 11.7984C27.5474 11.7984 24.188 14.1838 21.4568 18.5172C18.2082 23.6702 16.4177 30.6408 16.4177 38.1443V41.3769H0.0453978V41.3751Z" fill="url(#paint0_linear_402_243)"/>
<path d="M57.0688 0.0405273V2.96622C57.0688 9.11533 56.0809 15.1817 54.2033 20.5811C54.0816 20.9284 53.9563 21.272 53.8292 21.6139C53.6639 22.0623 53.4823 22.5254 53.2971 22.9775C52.2675 25.475 51.0454 27.7997 49.6598 29.8764C48.3324 31.8667 46.876 33.6162 45.3162 35.1085C41.1214 39.1166 36.1712 41.2631 30.9414 41.2631C26.1964 41.2631 21.4079 39.4198 17.4528 36.0806L16.5085 35.2794C16.83 30.0859 18.023 25.2434 19.9769 21.2022C19.9769 21.2022 21.5949 23.6133 22.9823 25.1736C25.5173 28.0239 27.8816 29.4666 30.9414 29.4666C34.8402 29.4666 38.7462 26.1788 41.5536 20.5976C41.7552 20.2025 41.9458 19.7963 42.1347 19.3792C42.2782 19.0649 42.4144 18.747 42.5469 18.4254C43.3314 16.5251 43.9688 14.4613 44.4373 12.3002C44.8749 10.2933 45.1673 8.21484 45.3125 6.09775C45.3834 5.06493 45.4197 4.01742 45.4197 2.96622V0.0405273H57.0688Z" fill="url(#paint1_linear_402_243)"/>
<defs>
<linearGradient id="paint0_linear_402_243" x1="-3.8302" y1="4.26437" x2="63.5102" y2="52.2352" gradientUnits="userSpaceOnUse">
<stop stop-color="#A16300"/>
<stop offset="0.014" stop-color="#A86900"/>
<stop offset="0.0895" stop-color="#C78500"/>
<stop offset="0.1682" stop-color="#E09B00"/>
<stop offset="0.2505" stop-color="#F1AB00"/>
<stop offset="0.3387" stop-color="#FCB400"/>
<stop offset="0.4432" stop-color="#FFB700"/>
<stop offset="0.7679" stop-color="#CA8700"/>
<stop offset="1" stop-color="#A16300"/>
</linearGradient>
<linearGradient id="paint1_linear_402_243" x1="19.5626" y1="38.9508" x2="59.7893" y2="6.48002" gradientUnits="userSpaceOnUse">
<stop stop-color="#A16300"/>
<stop offset="0.0131" stop-color="#A86900"/>
<stop offset="0.0838" stop-color="#C78500"/>
<stop offset="0.1576" stop-color="#E09B00"/>
<stop offset="0.2347" stop-color="#F1AB00"/>
<stop offset="0.3174" stop-color="#FCB400"/>
<stop offset="0.4153" stop-color="#FFB700"/>
<stop offset="0.6065" stop-color="#FCB500"/>
<stop offset="0.7533" stop-color="#F2AE00"/>
<stop offset="0.8849" stop-color="#E2A200"/>
<stop offset="0.9888" stop-color="#CF9400"/>
</linearGradient>
</defs>
</svg>
