<svg xmlns="http://www.w3.org/2000/svg" width="999" height="195" viewBox="0 0 999 195" fill="none">
    <g>
        <path d="M42 -122H102V52.5L42 122V-122Z" fill="#383838"/>
        <path d="M128 -122H188V52.5L128 122V-122Z" fill="#383838"/>
        <path d="M214 -122H274V52.5L214 122V-122Z" fill="#383838"/>
        <path d="M300 -122H360V52.5L300 122V-122Z" fill="#383838"/>
        <path d="M386 -122H446V52.5L386 122V-122Z" fill="#383838"/>
        <path d="M472 -122H532V52.5L472 122V-122Z" fill="#383838"/>
        <path d="M558 -122H618V52.5L558 122V-122Z" fill="#383838"/>
        <path d="M644 -122H704V52.5L644 122V-122Z" fill="#383838"/>
        <path d="M730 -122H790V52.5L730 122V-122Z" fill="#383838"/>
        <path d="M816 -122H876V52.5L816 122V-122Z" fill="#383838"/>
        <path d="M902 -122H962V52.5L902 122V-122Z" fill="#383838"/>
    </g>
</svg>
